<svg xmlns="http://www.w3.org/2000/svg" xmlns:xlink="http://www.w3.org/1999/xlink" width="1080" zoomAndPan="magnify" viewBox="0 0 810 809.999993" height="1080" preserveAspectRatio="xMidYMid meet" version="1.0"><defs><clipPath id="d333c4632d"><path d="M 217.078125 270.585938 L 460.078125 270.585938 L 460.078125 513.585938 L 217.078125 513.585938 Z M 217.078125 270.585938 " clip-rule="nonzero"/></clipPath><clipPath id="31030cf92a"><path d="M 46.574219 1 L 551 1 L 551 804 L 46.574219 804 Z M 46.574219 1 " clip-rule="nonzero"/></clipPath><clipPath id="d900aec5dc"><path d="M 46.574219 1 L 540 1 L 540 802 L 46.574219 802 Z M 46.574219 1 " clip-rule="nonzero"/></clipPath></defs><rect x="-81" width="972" fill="#ffffff" y="-80.999999" height="971.999992" fill-opacity="1"/><rect x="-81" width="972" fill="#ffffff" y="-80.999999" height="971.999992" fill-opacity="1"/><g clip-path="url(#d333c4632d)"><path fill="#315191" d="M 217.078125 270.585938 L 460.078125 270.585938 L 460.078125 513.585938 L 217.078125 513.585938 Z M 217.078125 270.585938 " fill-opacity="1" fill-rule="nonzero"/></g><path fill="#f7b2b2" d="M 710.804688 456.796875 C 706.964844 471.167969 699.816406 481.988281 689.832031 489.773438 L 671.480469 462.695312 L 680.867188 449.878906 L 686.011719 447.703125 L 691.035156 445.726562 Z M 710.804688 456.796875 " fill-opacity="1" fill-rule="nonzero"/><path fill="#46c17e" d="M 676.429688 279.238281 C 700.722656 280.742188 713.132812 301.527344 716.023438 325.234375 C 716.023438 325.234375 728.964844 388.429688 726.179688 414.441406 C 724.945312 425.953125 711.917969 455.476562 711.917969 455.476562 C 708.988281 461.75 690.375 453.671875 691.035156 445.726562 C 693.492188 421.160156 694.164062 397.726562 692.277344 375.917969 Z M 676.429688 279.238281 " fill-opacity="1" fill-rule="nonzero"/><path fill="#3caf6d" d="M 726.15625 414.429688 C 726.09375 415.148438 725.96875 415.933594 725.8125 416.777344 C 725.71875 417.214844 725.625 417.65625 725.53125 418.09375 C 725.214844 419.441406 724.839844 420.914062 724.402344 422.480469 C 723.929688 424.046875 723.429688 425.707031 722.898438 427.367188 C 722.523438 428.496094 722.113281 429.625 721.738281 430.753906 C 719.730469 436.453125 717.414062 442.34375 715.535156 446.917969 C 715.535156 446.949219 715.535156 446.949219 715.535156 446.949219 C 715.15625 447.859375 714.78125 448.738281 714.46875 449.519531 C 714.125 450.335938 713.808594 451.054688 713.527344 451.714844 C 712.554688 454.0625 711.929688 455.472656 711.929688 455.472656 C 710.957031 457.480469 708.449219 458.011719 705.441406 457.542969 C 705.035156 457.480469 704.628906 457.414062 704.21875 457.320312 C 704.160156 457.289062 704.09375 457.289062 704.035156 457.257812 C 703.6875 457.195312 703.3125 457.070312 702.9375 456.945312 C 702.652344 456.882812 702.402344 456.820312 702.121094 456.695312 C 701.652344 456.539062 701.183594 456.351562 700.710938 456.164062 C 701.117188 450.898438 702.058594 445.667969 704.378906 440.902344 C 706.539062 436.421875 710.019531 431.785156 708.640625 426.992188 C 708.230469 425.550781 707.386719 424.203125 707.417969 422.730469 C 707.480469 419.503906 711.492188 417.78125 712.652344 414.742188 C 713.652344 412.171875 712.429688 409.351562 712.367188 406.5625 C 712.273438 401.488281 716.128906 395.972656 713.371094 391.710938 C 712.554688 390.457031 711.242188 389.550781 710.550781 388.203125 C 708.671875 384.347656 712.902344 380.308594 713.527344 376.078125 C 714.277344 371.09375 709.925781 366.835938 708.859375 361.882812 C 707.574219 355.804688 711.023438 348.160156 706.414062 343.992188 C 704.628906 342.363281 701.996094 341.769531 700.648438 339.824219 C 697.484375 335.34375 703.65625 329.390625 702.433594 324.066406 C 701.683594 320.714844 698.265625 318.644531 697.042969 315.449219 C 695.132812 310.28125 699.363281 303.511719 695.699219 299.375 C 694.507812 298.027344 692.71875 297.371094 691.375 296.179688 C 687.675781 293.015625 674.640625 283.269531 676.988281 279.261719 C 692.46875 280.417969 703.0625 289.476562 709.390625 302.101562 L 709.390625 302.132812 C 709.453125 302.257812 709.515625 302.382812 709.578125 302.476562 C 710.488281 304.324219 711.304688 306.269531 712.023438 308.242188 C 712.304688 308.996094 712.554688 309.746094 712.808594 310.53125 C 713.152344 311.59375 713.496094 312.660156 713.777344 313.757812 C 714.277344 315.542969 714.6875 317.359375 715.0625 319.210938 C 715.253906 320.210938 715.4375 321.214844 715.597656 322.21875 C 715.753906 323.21875 715.878906 324.222656 716.003906 325.257812 C 716.003906 325.257812 718.605469 337.976562 721.269531 354.363281 C 721.269531 354.519531 721.300781 354.675781 721.328125 354.832031 C 724.527344 374.886719 727.691406 400.203125 726.15625 414.429688 Z M 726.15625 414.429688 " fill-opacity="1" fill-rule="nonzero"/><path fill="#dde9fe" d="M 162.207031 97.476562 C 161.378906 97.476562 160.585938 97.011719 160.203125 96.21875 C 159.675781 95.117188 160.136719 93.789062 161.242188 93.261719 C 163.335938 92.25 165.578125 91.492188 167.902344 91 C 169.089844 90.738281 170.273438 91.515625 170.53125 92.714844 C 170.785156 93.910156 170.019531 95.085938 168.820312 95.339844 C 166.839844 95.757812 164.9375 96.402344 163.164062 97.253906 C 162.855469 97.40625 162.527344 97.476562 162.207031 97.476562 Z M 162.207031 97.476562 " fill-opacity="1" fill-rule="nonzero"/><path fill="#dde9fe" d="M 312.777344 291.03125 C 312.777344 291.03125 312.773438 291.03125 312.769531 291.03125 C 308.417969 291.015625 304.0625 290.957031 299.714844 290.863281 C 298.488281 290.835938 297.519531 289.820312 297.542969 288.597656 C 297.570312 287.371094 298.535156 286.4375 299.8125 286.429688 C 304.132812 286.523438 308.460938 286.578125 312.785156 286.597656 C 314.011719 286.601562 315 287.597656 314.996094 288.824219 C 314.988281 290.042969 314 291.03125 312.777344 291.03125 Z M 325.792969 290.96875 C 324.582031 290.96875 323.589844 289.996094 323.574219 288.78125 C 323.558594 287.558594 324.535156 286.550781 325.761719 286.535156 C 330.085938 286.476562 334.410156 286.378906 338.734375 286.242188 C 338.757812 286.242188 338.78125 286.242188 338.804688 286.242188 C 339.996094 286.242188 340.980469 287.1875 341.019531 288.386719 C 341.058594 289.613281 340.097656 290.636719 338.875 290.675781 C 334.523438 290.8125 330.171875 290.910156 325.820312 290.96875 C 325.8125 290.96875 325.804688 290.96875 325.792969 290.96875 Z M 286.753906 290.464844 C 286.722656 290.464844 286.695312 290.464844 286.664062 290.460938 C 282.316406 290.289062 277.96875 290.078125 273.625 289.828125 C 272.398438 289.757812 271.464844 288.710938 271.535156 287.488281 C 271.605469 286.265625 272.65625 285.34375 273.878906 285.402344 C 278.195312 285.648438 282.515625 285.859375 286.835938 286.03125 C 288.0625 286.078125 289.015625 287.109375 288.96875 288.332031 C 288.917969 289.527344 287.9375 290.464844 286.753906 290.464844 Z M 260.769531 288.972656 C 260.714844 288.972656 260.65625 288.96875 260.597656 288.964844 C 256.261719 288.636719 251.925781 288.273438 247.589844 287.871094 C 246.371094 287.757812 245.472656 286.675781 245.585938 285.457031 C 245.703125 284.238281 246.761719 283.3125 248.003906 283.453125 C 252.308594 283.855469 256.621094 284.21875 260.933594 284.542969 C 262.15625 284.636719 263.070312 285.699219 262.980469 286.921875 C 262.890625 288.085938 261.917969 288.972656 260.769531 288.972656 Z M 234.851562 286.558594 C 234.769531 286.558594 234.6875 286.554688 234.605469 286.542969 L 231.238281 286.160156 C 228.035156 285.789062 224.832031 285.398438 221.632812 284.964844 C 220.417969 284.800781 219.566406 283.683594 219.730469 282.46875 C 219.894531 281.253906 221.023438 280.398438 222.226562 280.570312 C 225.398438 281 228.578125 281.390625 231.75 281.757812 L 235.089844 282.136719 C 236.308594 282.269531 237.1875 283.367188 237.050781 284.582031 C 236.925781 285.71875 235.964844 286.558594 234.851562 286.558594 Z M 209.070312 282.980469 C 208.941406 282.980469 208.808594 282.96875 208.675781 282.945312 C 204.085938 282.121094 199.875 281.230469 195.804688 280.226562 C 194.617188 279.929688 193.890625 278.726562 194.1875 277.539062 C 194.480469 276.351562 195.675781 275.632812 196.871094 275.917969 C 200.84375 276.902344 204.964844 277.773438 209.460938 278.582031 C 210.664062 278.800781 211.464844 279.953125 211.25 281.15625 C 211.058594 282.230469 210.121094 282.980469 209.070312 282.980469 Z M 183.847656 276.652344 C 183.609375 276.652344 183.367188 276.613281 183.132812 276.535156 C 181.488281 275.972656 179.855469 275.382812 178.230469 274.757812 C 175.730469 273.796875 173.238281 272.738281 170.828125 271.609375 C 169.71875 271.09375 169.238281 269.773438 169.757812 268.664062 C 170.273438 267.554688 171.597656 267.074219 172.707031 267.59375 C 175.023438 268.675781 177.417969 269.691406 179.820312 270.617188 C 181.390625 271.222656 182.972656 271.792969 184.5625 272.335938 C 185.722656 272.730469 186.339844 273.988281 185.945312 275.148438 C 185.628906 276.070312 184.769531 276.652344 183.847656 276.652344 Z M 160.34375 265.601562 C 159.9375 265.601562 159.527344 265.488281 159.164062 265.257812 C 155.316406 262.832031 151.707031 260.175781 148.425781 257.363281 C 147.492188 256.5625 147.386719 255.164062 148.183594 254.234375 C 148.984375 253.304688 150.386719 253.199219 151.3125 253.996094 C 154.429688 256.667969 157.867188 259.195312 161.527344 261.507812 C 162.566406 262.160156 162.875 263.53125 162.222656 264.566406 C 161.800781 265.234375 161.078125 265.601562 160.34375 265.601562 Z M 140.734375 248.644531 C 140.097656 248.644531 139.464844 248.371094 139.027344 247.839844 C 137.511719 246.011719 136.082031 244.101562 134.777344 242.167969 C 133.582031 240.394531 132.484375 238.542969 131.515625 236.664062 C 130.957031 235.574219 131.378906 234.238281 132.472656 233.675781 C 133.570312 233.113281 134.898438 233.542969 135.457031 234.628906 C 136.347656 236.355469 137.355469 238.058594 138.457031 239.691406 C 139.679688 241.503906 141.019531 243.296875 142.441406 245.011719 C 143.226562 245.957031 143.09375 247.355469 142.148438 248.136719 C 141.734375 248.476562 141.230469 248.644531 140.734375 248.644531 Z M 129.203125 225.628906 C 128.152344 225.628906 127.21875 224.878906 127.023438 223.808594 C 126.632812 221.675781 126.433594 219.558594 126.433594 217.511719 C 126.433594 214.878906 126.761719 212.328125 127.40625 209.929688 C 127.726562 208.746094 128.933594 208.042969 130.125 208.363281 C 131.308594 208.683594 132.007812 209.898438 131.6875 211.082031 C 131.144531 213.105469 130.867188 215.269531 130.867188 217.511719 C 130.867188 219.289062 131.042969 221.140625 131.386719 223.007812 C 131.605469 224.214844 130.808594 225.371094 129.605469 225.589844 C 129.46875 225.613281 129.332031 225.628906 129.203125 225.628906 Z M 135.925781 201.535156 C 135.386719 201.535156 134.847656 201.339844 134.421875 200.945312 C 133.523438 200.117188 133.464844 198.710938 134.296875 197.8125 C 137.539062 194.300781 141.371094 191.503906 144.695312 189.226562 C 145.710938 188.539062 147.089844 188.796875 147.777344 189.804688 C 148.472656 190.816406 148.210938 192.195312 147.203125 192.886719 C 144.082031 195.023438 140.5 197.632812 137.554688 200.820312 C 137.117188 201.292969 136.523438 201.535156 135.925781 201.535156 Z M 156.746094 186 C 156.058594 186 155.378906 185.679688 154.945312 185.078125 C 154.230469 184.085938 154.453125 182.699219 155.449219 181.984375 C 158.738281 179.609375 161.929688 176.945312 165.199219 173.839844 C 166.085938 173 167.492188 173.035156 168.335938 173.921875 C 169.175781 174.808594 169.140625 176.210938 168.253906 177.054688 C 164.839844 180.300781 161.5 183.089844 158.042969 185.582031 C 157.648438 185.863281 157.195312 186 156.746094 186 Z M 175.707031 168.253906 C 175.1875 168.253906 174.664062 168.074219 174.246094 167.703125 C 173.324219 166.894531 173.230469 165.496094 174.039062 164.574219 C 176.519531 161.746094 179.140625 158.589844 182.285156 154.640625 C 183.046875 153.6875 184.445312 153.523438 185.402344 154.289062 C 186.359375 155.050781 186.519531 156.445312 185.753906 157.40625 C 182.5625 161.410156 179.902344 164.617188 177.375 167.496094 C 176.933594 168 176.320312 168.253906 175.707031 168.253906 Z M 192.03125 147.984375 C 191.566406 147.984375 191.097656 147.835938 190.699219 147.539062 C 189.722656 146.800781 189.523438 145.410156 190.261719 144.433594 C 192.378906 141.621094 195.0625 137.878906 197.070312 133.84375 C 197.617188 132.75 198.929688 132.289062 200.042969 132.84375 C 201.140625 133.390625 201.585938 134.71875 201.042969 135.816406 C 198.875 140.175781 196.035156 144.136719 193.804688 147.097656 C 193.367188 147.679688 192.703125 147.984375 192.03125 147.984375 Z M 202.582031 124.613281 C 202.542969 124.613281 202.503906 124.613281 202.457031 124.613281 C 201.238281 124.546875 200.296875 123.5 200.367188 122.277344 C 200.390625 121.820312 200.402344 121.363281 200.402344 120.90625 C 200.402344 117.429688 199.667969 113.851562 198.273438 110.558594 C 197.796875 109.429688 198.324219 108.128906 199.453125 107.652344 C 200.578125 107.179688 201.886719 107.703125 202.363281 108.832031 C 203.984375 112.667969 204.839844 116.84375 204.839844 120.90625 C 204.839844 121.445312 204.824219 121.980469 204.796875 122.519531 C 204.730469 123.699219 203.753906 124.613281 202.582031 124.613281 Z M 192.773438 101.449219 C 192.261719 101.449219 191.746094 101.273438 191.328125 100.914062 C 190.894531 100.542969 190.453125 100.1875 190 99.847656 C 187.296875 97.828125 184.183594 96.375 180.753906 95.542969 C 179.5625 95.257812 178.832031 94.058594 179.121094 92.867188 C 179.414062 91.675781 180.601562 90.941406 181.800781 91.234375 C 185.816406 92.210938 189.46875 93.914062 192.660156 96.296875 C 193.195312 96.699219 193.710938 97.113281 194.21875 97.550781 C 195.148438 98.347656 195.253906 99.746094 194.457031 100.675781 C 194.019531 101.1875 193.394531 101.449219 192.773438 101.449219 Z M 192.773438 101.449219 " fill-opacity="1" fill-rule="nonzero"/><path fill="#526a70" d="M 139.882812 70.117188 C 140.191406 70.09375 140.484375 69.910156 140.625 69.609375 C 140.835938 69.160156 140.644531 68.628906 140.199219 68.417969 C 139.453125 68.066406 138.707031 67.722656 137.953125 67.382812 C 137.511719 67.175781 136.980469 67.378906 136.773438 67.828125 C 136.570312 68.277344 136.769531 68.808594 137.21875 69.011719 C 137.960938 69.347656 138.699219 69.6875 139.4375 70.035156 C 139.582031 70.105469 139.734375 70.128906 139.882812 70.117188 Z M 139.882812 70.117188 " fill-opacity="1" fill-rule="nonzero"/><path fill="#526a70" d="M 148.105469 74.386719 C 146.675781 73.625 145.242188 72.882812 143.792969 72.152344 C 143.351562 71.933594 143.175781 71.394531 143.398438 70.953125 C 143.617188 70.515625 144.160156 70.335938 144.597656 70.558594 C 146.054688 71.289062 147.503906 72.042969 148.941406 72.804688 C 149.378906 73.039062 149.542969 73.578125 149.3125 74.011719 C 149.164062 74.296875 148.886719 74.464844 148.589844 74.488281 C 148.425781 74.5 148.257812 74.464844 148.105469 74.386719 Z M 148.105469 74.386719 " fill-opacity="1" fill-rule="nonzero"/><path fill="#c7d8ef" d="M 160.703125 63.835938 L 156.328125 89.738281 L 77.425781 34.410156 L 53.597656 19.195312 L 143.773438 48.121094 Z M 160.703125 63.835938 " fill-opacity="1" fill-rule="nonzero"/><path fill="#dde9fe" d="M 53.597656 19.195312 L 195.464844 38.941406 L 160.703125 63.835938 Z M 53.597656 19.195312 " fill-opacity="1" fill-rule="nonzero"/><path fill="#a3bbd3" d="M 195.464844 38.941406 L 141.933594 56.011719 L 160.703125 63.835938 Z M 195.464844 38.941406 " fill-opacity="1" fill-rule="nonzero"/><path fill="#b3c9e2" d="M 141.933594 56.011719 L 127.371094 76.984375 L 140.03125 76.042969 L 156.328125 89.738281 L 160.703125 63.835938 Z M 141.933594 56.011719 " fill-opacity="1" fill-rule="nonzero"/><path fill="#c7d8ef" d="M 149.355469 70.984375 L 156.328125 89.738281 L 131.269531 72.328125 Z M 149.355469 70.984375 " fill-opacity="1" fill-rule="nonzero"/><path fill="#dde9fe" d="M 53.597656 19.195312 L 111.734375 96.574219 L 149.355469 70.984375 Z M 53.597656 19.195312 " fill-opacity="1" fill-rule="nonzero"/><path fill="#a3bbd3" d="M 131.691406 61.429688 L 111.734375 96.574219 L 149.355469 70.984375 Z M 131.691406 61.429688 " fill-opacity="1" fill-rule="nonzero"/><g clip-path="url(#31030cf92a)"><path fill="#dde9fe" d="M 550.613281 497.144531 C 550.671875 518.921875 535.351562 545.429688 516.425781 556.363281 L 96.363281 798.84375 C 86.648438 804.453125 77.875 804.859375 71.609375 801.007812 C 71.734375 801.101562 71.859375 801.195312 71.984375 801.257812 L 57.476562 792.796875 C 51.300781 789.195312 47.511719 781.613281 47.480469 770.800781 L 46.570312 307.804688 C 46.507812 286.058594 61.832031 259.550781 80.757812 248.617188 L 500.847656 6.136719 C 510.34375 0.652344 518.992188 0.121094 525.230469 3.753906 L 539.738281 12.183594 C 539.425781 11.996094 539.082031 11.808594 538.734375 11.652344 C 545.472656 14.972656 549.703125 22.804688 549.734375 34.179688 Z M 550.613281 497.144531 " fill-opacity="1" fill-rule="nonzero"/></g><g clip-path="url(#d900aec5dc)"><path fill="#c7d8ef" d="M 539.730469 12.171875 C 533.480469 8.554688 524.839844 9.0625 515.332031 14.5625 L 95.277344 257.0625 C 76.316406 267.976562 61.039062 294.496094 61.097656 316.234375 L 61.964844 779.238281 C 61.996094 790.03125 65.820312 797.65625 71.980469 801.246094 L 57.464844 792.792969 C 51.304688 789.207031 47.507812 781.613281 47.480469 770.789062 L 46.582031 307.8125 C 46.523438 286.046875 61.832031 259.558594 80.761719 248.613281 L 500.84375 6.144531 C 510.351562 0.640625 518.996094 0.132812 525.214844 3.75 Z M 539.730469 12.171875 " fill-opacity="1" fill-rule="nonzero"/></g><path fill="#dde9fe" d="M 515.324219 14.566406 C 534.261719 3.632812 549.660156 12.40625 549.722656 34.167969 L 550.597656 497.144531 C 550.660156 518.90625 535.359375 545.425781 516.421875 556.359375 L 96.363281 798.847656 C 77.425781 809.78125 62.023438 800.984375 61.960938 779.226562 L 61.089844 316.246094 C 61.027344 294.488281 76.328125 267.988281 95.265625 257.058594 Z M 515.324219 14.566406 " fill-opacity="1" fill-rule="nonzero"/><path fill="#ffffff" d="M 85.496094 316.179688 C 85.460938 303.195312 96.140625 284.738281 107.472656 278.195312 L 525.320312 36.980469 L 526.183594 497.210938 C 526.222656 510.210938 515.542969 528.679688 504.214844 535.222656 L 103.0625 766.796875 C 95.632812 771.085938 86.34375 765.734375 86.328125 757.15625 Z M 85.496094 316.179688 " fill-opacity="1" fill-rule="nonzero"/><path fill="#285294" d="M 583.421875 96.9375 C 583.449219 104.925781 577.84375 114.609375 570.917969 118.621094 L 139.859375 367.429688 C 136.253906 369.496094 133.027344 369.652344 130.738281 368.179688 L 120.960938 362.542969 C 118.707031 361.226562 117.296875 358.4375 117.296875 354.457031 L 117.203125 317.203125 C 117.171875 309.214844 122.75 299.53125 129.703125 295.523438 L 560.730469 46.679688 C 564.210938 44.675781 567.40625 44.488281 569.664062 45.804688 L 579.128906 51.316406 C 581.699219 52.507812 583.296875 55.390625 583.328125 59.652344 Z M 583.421875 96.9375 " fill-opacity="1" fill-rule="nonzero"/><path fill="#263966" d="M 579.644531 51.613281 C 577.375 50.296875 574.226562 50.480469 570.710938 52.492188 L 139.683594 301.320312 C 132.726562 305.3125 127.164062 315.011719 127.164062 322.992188 L 127.273438 360.253906 C 127.308594 364.207031 128.699219 367.027344 130.933594 368.308594 L 120.964844 362.542969 C 118.695312 361.222656 117.304688 358.441406 117.304688 354.453125 L 117.195312 317.191406 C 117.160156 309.210938 122.757812 299.546875 129.714844 295.519531 L 560.746094 46.691406 C 564.222656 44.679688 567.40625 44.496094 569.679688 45.8125 Z M 579.644531 51.613281 " fill-opacity="1" fill-rule="nonzero"/><path fill="#285294" d="M 570.722656 52.488281 C 577.664062 48.484375 583.292969 51.6875 583.316406 59.664062 L 583.421875 96.9375 C 583.445312 104.914062 577.851562 114.597656 570.910156 118.605469 L 139.875 367.433594 C 132.929688 371.441406 127.304688 368.234375 127.28125 360.261719 L 127.175781 322.984375 C 127.152344 315.011719 132.742188 305.328125 139.6875 301.320312 Z M 570.722656 52.488281 " fill-opacity="1" fill-rule="nonzero"/><path fill="#ffffff" d="M 157.566406 315.554688 C 162.078125 312.953125 165.753906 315.042969 165.765625 320.210938 C 165.78125 325.394531 162.132812 331.714844 157.621094 334.320312 C 153.109375 336.921875 149.453125 334.820312 149.4375 329.636719 C 149.421875 324.472656 153.054688 318.160156 157.566406 315.554688 Z M 157.566406 315.554688 " fill-opacity="1" fill-rule="nonzero"/><path fill="#ffffff" d="M 186.824219 298.664062 C 191.335938 296.0625 194.996094 298.164062 195.011719 303.328125 C 195.023438 308.511719 191.390625 314.824219 186.878906 317.429688 C 182.367188 320.03125 178.710938 317.929688 178.695312 312.746094 C 178.679688 307.582031 182.3125 301.269531 186.824219 298.664062 Z M 186.824219 298.664062 " fill-opacity="1" fill-rule="nonzero"/><path fill="#ffffff" d="M 216.082031 281.777344 C 220.59375 279.171875 224.253906 281.273438 224.269531 286.4375 C 224.28125 291.621094 220.648438 297.933594 216.136719 300.539062 C 211.625 303.144531 207.96875 301.042969 207.953125 295.859375 C 207.9375 290.691406 211.570312 284.378906 216.082031 281.777344 Z M 216.082031 281.777344 " fill-opacity="1" fill-rule="nonzero"/><path fill="#b0c4ff" d="M 383.621094 378.082031 C 383.652344 386.167969 377.917969 396.066406 370.867188 400.140625 L 245.085938 472.738281 C 241.449219 474.835938 238.160156 474.992188 235.839844 473.550781 L 229.761719 470.011719 C 227.472656 468.695312 226.0625 465.84375 226.0625 461.863281 L 225.875 375.449219 C 225.875 367.335938 231.578125 357.464844 238.628906 353.359375 L 364.410156 280.765625 C 367.984375 278.726562 371.214844 278.507812 373.53125 279.886719 L 379.234375 283.207031 C 379.421875 283.300781 379.578125 283.394531 379.734375 283.488281 C 382.023438 284.835938 383.433594 287.65625 383.464844 291.667969 Z M 383.621094 378.082031 " fill-opacity="1" fill-rule="nonzero"/><path fill="#92b2f9" d="M 379.746094 283.488281 C 377.421875 282.125 374.1875 282.328125 370.636719 284.378906 L 244.835938 356.984375 C 237.777344 361.058594 232.058594 370.941406 232.082031 379.050781 L 232.242188 465.4375 C 232.265625 469.46875 233.675781 472.292969 235.976562 473.636719 L 229.761719 470.027344 C 227.484375 468.707031 226.050781 465.859375 226.050781 461.851562 L 225.890625 375.441406 C 225.867188 367.332031 231.582031 357.449219 238.644531 353.375 L 364.417969 280.769531 C 367.996094 278.71875 371.207031 278.515625 373.53125 279.878906 Z M 379.746094 283.488281 " fill-opacity="1" fill-rule="nonzero"/><path fill="#b0c4ff" d="M 370.628906 284.371094 C 377.699219 280.292969 383.445312 283.570312 383.46875 291.671875 L 383.617188 378.070312 C 383.640625 386.171875 377.929688 396.0625 370.863281 400.140625 L 245.078125 472.742188 C 238.011719 476.824219 232.265625 473.546875 232.242188 465.445312 L 232.09375 379.046875 C 232.070312 370.945312 237.78125 361.054688 244.847656 356.976562 Z M 370.628906 284.371094 " fill-opacity="1" fill-rule="nonzero"/><path fill="#dde9fe" d="M 358.21875 315.621094 C 360.976562 314.027344 363.210938 315.300781 363.21875 318.453125 L 363.417969 374.613281 C 363.425781 377.78125 361.207031 381.625 358.449219 383.214844 L 347.136719 389.746094 C 344.382812 391.335938 342.148438 390.066406 342.136719 386.898438 L 341.9375 330.738281 C 341.929688 327.585938 344.148438 323.742188 346.90625 322.148438 Z M 358.21875 315.621094 " fill-opacity="1" fill-rule="nonzero"/><path fill="#dde9fe" d="M 328.375 345.523438 C 331.121094 343.941406 333.355469 345.214844 333.363281 348.382812 L 333.527344 391.867188 C 333.535156 395.035156 331.316406 398.878906 328.570312 400.464844 L 317.246094 407 C 314.503906 408.585938 312.269531 407.3125 312.261719 404.144531 L 312.097656 360.660156 C 312.089844 357.488281 314.308594 353.644531 317.050781 352.0625 Z M 328.375 345.523438 " fill-opacity="1" fill-rule="nonzero"/><path fill="#dde9fe" d="M 298.554688 388.109375 C 301.3125 386.519531 303.546875 387.792969 303.558594 390.960938 L 303.648438 409.117188 C 303.65625 412.285156 301.4375 416.128906 298.679688 417.71875 L 287.367188 424.25 C 284.609375 425.839844 282.378906 424.570312 282.367188 421.398438 L 282.277344 403.246094 C 282.269531 400.078125 284.488281 396.234375 287.246094 394.640625 Z M 298.554688 388.109375 " fill-opacity="1" fill-rule="nonzero"/><path fill="#dde9fe" d="M 268.570312 367.371094 C 271.328125 365.78125 273.5625 367.054688 273.570312 370.203125 L 273.769531 426.363281 C 273.78125 429.53125 271.558594 433.375 268.800781 434.96875 L 257.492188 441.496094 C 254.734375 443.089844 252.5 441.816406 252.492188 438.648438 L 252.292969 382.488281 C 252.28125 379.335938 254.503906 375.492188 257.261719 373.902344 Z M 268.570312 367.371094 " fill-opacity="1" fill-rule="nonzero"/><path fill="#b0c4ff" d="M 213.78125 476.089844 C 213.8125 484.203125 208.109375 494.074219 201.027344 498.179688 L 126.320312 541.292969 C 122.6875 543.390625 119.394531 543.546875 117.078125 542.105469 L 111 538.566406 C 108.710938 537.25 107.269531 534.398438 107.269531 530.421875 L 107.113281 444.003906 C 107.082031 435.890625 112.816406 426.019531 119.867188 421.917969 L 194.570312 378.804688 C 198.175781 376.734375 201.371094 376.546875 203.691406 377.894531 L 209.425781 381.246094 C 209.582031 381.339844 209.769531 381.433594 209.925781 381.527344 C 212.214844 382.875 213.625 385.695312 213.625 389.707031 Z M 213.78125 476.089844 " fill-opacity="1" fill-rule="nonzero"/><path fill="#92b2f9" d="M 209.910156 381.515625 C 207.589844 380.152344 204.355469 380.355469 200.800781 382.40625 L 126.066406 425.539062 C 119.003906 429.613281 113.289062 439.496094 113.3125 447.605469 L 113.472656 533.992188 C 113.492188 538.023438 114.90625 540.847656 117.207031 542.191406 L 110.988281 538.582031 C 108.710938 537.261719 107.277344 534.414062 107.277344 530.40625 L 107.117188 443.996094 C 107.09375 435.886719 112.8125 426.003906 119.871094 421.929688 L 194.585938 378.796875 C 198.160156 376.746094 201.371094 376.542969 203.695312 377.910156 Z M 209.910156 381.515625 " fill-opacity="1" fill-rule="nonzero"/><path fill="#b0c4ff" d="M 200.796875 382.402344 C 207.863281 378.320312 213.609375 381.597656 213.632812 389.699219 L 213.785156 476.097656 C 213.808594 484.199219 208.097656 494.089844 201.03125 498.167969 L 126.308594 541.296875 C 119.242188 545.378906 113.492188 542.101562 113.472656 534 L 113.320312 447.601562 C 113.296875 439.5 119.007812 429.609375 126.074219 425.53125 Z M 200.796875 382.402344 " fill-opacity="1" fill-rule="nonzero"/><path fill="#6a95d3" d="M 193.078125 439.3125 C 193.863281 439.070312 194.425781 439.554688 194.425781 440.480469 L 194.445312 447.5625 C 194.449219 448.488281 193.894531 449.621094 193.109375 450.285156 L 190.078125 452.859375 C 189.441406 453.402344 188.953125 454.253906 188.789062 455.074219 C 188.203125 457.96875 187.328125 460.898438 186.21875 463.773438 C 185.890625 464.617188 185.878906 465.425781 186.230469 465.859375 L 187.878906 467.957031 C 188.300781 468.507812 188.207031 469.582031 187.632812 470.578125 L 183.296875 478.089844 C 182.960938 478.675781 182.515625 479.128906 182.0625 479.390625 C 181.746094 479.574219 181.429688 479.660156 181.140625 479.625 L 178.480469 479.273438 C 178.203125 479.230469 177.886719 479.3125 177.570312 479.496094 C 177.257812 479.675781 176.945312 479.957031 176.660156 480.308594 C 174.722656 482.71875 172.628906 484.941406 170.417969 486.90625 C 169.78125 487.460938 169.289062 488.304688 169.140625 489.121094 L 168.425781 493.039062 C 168.25 494.042969 167.542969 495.09375 166.738281 495.558594 L 160.582031 499.113281 C 159.769531 499.582031 159.0625 499.347656 158.875 498.550781 L 158.144531 495.46875 C 157.988281 494.828125 157.492188 494.554688 156.859375 494.730469 C 154.636719 495.328125 152.542969 495.523438 150.605469 495.355469 C 150.316406 495.328125 150 495.414062 149.6875 495.59375 C 149.371094 495.777344 149.054688 496.058594 148.777344 496.417969 L 146.125 499.839844 C 145.839844 500.203125 145.523438 500.484375 145.207031 500.667969 C 144.757812 500.925781 144.308594 500.984375 143.96875 500.792969 L 139.597656 498.308594 C 139.027344 497.984375 138.921875 497.015625 139.339844 495.976562 L 140.976562 491.972656 C 141.324219 491.132812 141.316406 490.332031 140.980469 489.871094 C 139.855469 488.292969 138.96875 486.390625 138.371094 484.1875 C 138.199219 483.558594 137.707031 483.273438 137.074219 483.464844 L 134.027344 484.390625 C 133.242188 484.632812 132.679688 484.148438 132.675781 483.222656 L 132.65625 476.140625 C 132.65625 475.214844 133.210938 474.082031 133.996094 473.417969 L 137.039062 470.832031 C 137.671875 470.289062 138.15625 469.441406 138.328125 468.613281 C 138.910156 465.730469 139.785156 462.808594 140.894531 459.941406 C 141.226562 459.09375 141.230469 458.289062 140.882812 457.847656 L 139.222656 455.746094 C 138.804688 455.195312 138.902344 454.109375 139.472656 453.125 L 143.8125 445.609375 C 144.152344 445.027344 144.597656 444.570312 145.046875 444.308594 C 145.363281 444.125 145.683594 444.039062 145.96875 444.074219 L 148.628906 444.429688 C 148.910156 444.46875 149.222656 444.382812 149.539062 444.203125 C 149.855469 444.019531 150.171875 443.738281 150.457031 443.382812 C 152.386719 440.980469 154.476562 438.761719 156.695312 436.800781 C 157.328125 436.238281 157.820312 435.394531 157.972656 434.578125 L 158.683594 430.664062 C 158.867188 429.652344 159.566406 428.605469 160.378906 428.136719 L 166.535156 424.582031 C 167.34375 424.117188 168.054688 424.347656 168.234375 425.148438 L 168.96875 428.230469 C 169.121094 428.871094 169.617188 429.144531 170.253906 428.976562 C 172.46875 428.375 174.570312 428.175781 176.511719 428.355469 C 176.796875 428.375 177.109375 428.289062 177.421875 428.109375 C 177.738281 427.925781 178.054688 427.644531 178.332031 427.28125 L 180.984375 423.859375 C 181.269531 423.496094 181.585938 423.214844 181.902344 423.03125 C 182.355469 422.773438 182.800781 422.714844 183.140625 422.90625 L 187.503906 425.394531 C 188.085938 425.722656 188.183594 426.6875 187.765625 427.726562 L 186.132812 431.71875 C 185.785156 432.5625 185.800781 433.347656 186.132812 433.8125 C 187.253906 435.398438 188.144531 437.308594 188.746094 439.515625 C 188.914062 440.148438 189.402344 440.433594 190.042969 440.238281 Z M 163.59375 477.09375 C 170.929688 472.859375 176.84375 462.613281 176.820312 454.191406 C 176.796875 445.777344 170.84375 442.375 163.507812 446.613281 C 156.183594 450.839844 150.257812 461.097656 150.285156 469.511719 C 150.308594 477.933594 156.269531 481.324219 163.59375 477.09375 " fill-opacity="1" fill-rule="nonzero"/><path fill="#b0c4ff" d="M 469.546875 389.113281 C 469.292969 388.953125 469.042969 388.828125 468.792969 388.734375 C 468.886719 388.765625 468.980469 388.796875 469.042969 388.828125 C 469.230469 388.921875 469.386719 389.015625 469.546875 389.113281 Z M 469.546875 389.113281 " fill-opacity="1" fill-rule="nonzero"/><path fill="#b0c4ff" d="M 469.546875 389.113281 C 469.292969 388.953125 469.042969 388.828125 468.792969 388.734375 C 468.886719 388.765625 468.980469 388.796875 469.042969 388.828125 C 469.230469 388.921875 469.386719 389.015625 469.546875 389.113281 Z M 469.546875 389.113281 " fill-opacity="1" fill-rule="nonzero"/><path fill="#b0c4ff" d="M 473.429688 422.292969 C 473.460938 430.375 467.726562 440.277344 460.675781 444.351562 L 204.628906 592.144531 L 157.4375 619.371094 C 153.800781 621.472656 150.542969 621.628906 148.191406 620.1875 L 142.113281 616.648438 C 139.859375 615.332031 138.417969 612.480469 138.417969 608.46875 L 138.257812 583.496094 C 138.230469 575.382812 143.933594 565.511719 151.011719 561.40625 L 454.222656 386.386719 C 457.792969 384.347656 461.019531 384.128906 463.339844 385.507812 L 469.042969 388.828125 C 468.980469 388.796875 468.886719 388.765625 468.792969 388.734375 C 469.042969 388.828125 469.292969 388.953125 469.546875 389.113281 C 471.832031 390.457031 473.242188 393.277344 473.273438 397.289062 Z M 473.429688 422.292969 " fill-opacity="1" fill-rule="nonzero"/><path fill="#92b2f9" d="M 469.558594 389.113281 C 467.234375 387.746094 464 387.949219 460.449219 390 L 157.199219 565.03125 C 150.136719 569.105469 144.421875 578.988281 144.445312 587.097656 L 144.605469 612.070312 C 144.628906 616.101562 146.039062 618.925781 148.339844 620.269531 L 142.125 616.660156 C 139.847656 615.339844 138.410156 612.492188 138.410156 608.484375 L 138.25 583.488281 C 138.230469 575.378906 143.945312 565.496094 151.003906 561.421875 L 454.230469 386.390625 C 457.808594 384.339844 461.019531 384.136719 463.339844 385.503906 Z M 469.558594 389.113281 " fill-opacity="1" fill-rule="nonzero"/><path fill="#b0c4ff" d="M 460.441406 389.996094 C 467.511719 385.914062 473.257812 389.191406 473.28125 397.292969 L 473.429688 422.277344 C 473.453125 430.378906 467.742188 440.269531 460.675781 444.347656 L 157.441406 619.375 C 150.375 623.457031 144.628906 620.179688 144.605469 612.078125 L 144.453125 587.09375 C 144.429688 578.992188 150.140625 569.101562 157.207031 565.023438 Z M 460.441406 389.996094 " fill-opacity="1" fill-rule="nonzero"/><path fill="#4075c1" d="M 204.632812 537.648438 L 157.210938 565.023438 C 150.140625 569.101562 144.429688 578.992188 144.453125 587.09375 L 144.605469 612.078125 C 144.625 620.179688 150.375 623.457031 157.441406 619.375 L 204.632812 592.136719 Z M 204.632812 537.648438 " fill-opacity="1" fill-rule="nonzero"/><path fill="#ffffff" d="M 187.667969 586.125 C 188.933594 586.847656 188.9375 589.191406 187.679688 591.371094 C 187.050781 592.460938 186.230469 593.292969 185.402344 593.769531 C 184.578125 594.242188 183.753906 594.355469 183.121094 594.003906 L 177.667969 590.894531 C 175.9375 593 174.011719 594.667969 172.082031 595.78125 C 169.121094 597.488281 166.152344 597.898438 163.882812 596.605469 C 159.347656 594.023438 159.324219 585.605469 163.835938 577.789062 C 166.09375 573.882812 169.058594 570.867188 172.027344 569.152344 C 174.992188 567.441406 177.957031 567.027344 180.222656 568.316406 C 183.964844 570.449219 184.628906 576.566406 182.214844 583.019531 Z M 177.609375 585.632812 C 180.660156 580.347656 180.648438 574.648438 177.574219 572.902344 C 176.039062 572.027344 174.035156 572.304688 172.03125 573.460938 C 170.023438 574.617188 168.019531 576.65625 166.496094 579.296875 C 163.445312 584.582031 163.460938 590.277344 166.53125 592.027344 C 168.066406 592.902344 170.074219 592.625 172.078125 591.46875 C 174.082031 590.308594 176.085938 588.273438 177.609375 585.632812 " fill-opacity="1" fill-rule="nonzero"/><path fill="#dde9fe" d="M 123.304688 683.101562 C 122.242188 683.101562 121.207031 682.550781 120.636719 681.5625 C 119.789062 680.09375 120.292969 678.214844 121.761719 677.363281 L 411.769531 509.953125 C 413.238281 509.105469 415.117188 509.605469 415.96875 511.078125 C 416.820312 512.550781 416.316406 514.429688 414.84375 515.277344 L 124.839844 682.691406 C 124.355469 682.96875 123.828125 683.101562 123.304688 683.101562 Z M 123.304688 683.101562 " fill-opacity="1" fill-rule="nonzero"/><path fill="#dde9fe" d="M 446.417969 496.574219 C 445.355469 496.574219 444.320312 496.023438 443.75 495.039062 C 442.902344 493.566406 443.40625 491.6875 444.875 490.839844 L 486.84375 466.613281 C 488.308594 465.765625 490.195312 466.269531 491.042969 467.738281 C 491.894531 469.210938 491.390625 471.089844 489.917969 471.941406 L 447.953125 496.164062 C 447.46875 496.441406 446.941406 496.574219 446.417969 496.574219 Z M 446.417969 496.574219 " fill-opacity="1" fill-rule="nonzero"/><path fill="#dde9fe" d="M 123.304688 717.777344 C 122.242188 717.777344 121.207031 717.226562 120.636719 716.238281 C 119.789062 714.769531 120.292969 712.886719 121.761719 712.039062 L 208.371094 662.042969 C 209.835938 661.191406 211.71875 661.695312 212.574219 663.167969 C 213.421875 664.640625 212.917969 666.519531 211.445312 667.367188 L 124.839844 717.363281 C 124.355469 717.644531 123.828125 717.777344 123.304688 717.777344 Z M 123.304688 717.777344 " fill-opacity="1" fill-rule="nonzero"/><path fill="#dde9fe" d="M 238.199219 652.046875 C 237.136719 652.046875 236.105469 651.5 235.535156 650.515625 C 234.683594 649.046875 235.183594 647.164062 236.652344 646.316406 L 486.835938 501.292969 C 488.3125 500.445312 490.191406 500.941406 491.042969 502.410156 C 491.894531 503.878906 491.390625 505.761719 489.925781 506.609375 L 239.738281 651.632812 C 239.25 651.914062 238.71875 652.046875 238.199219 652.046875 Z M 238.199219 652.046875 " fill-opacity="1" fill-rule="nonzero"/><path fill="#b0c4ff" d="M 547.351562 280.324219 C 547.382812 288.660156 541.523438 298.8125 534.285156 303.011719 L 457.574219 347.28125 C 453.84375 349.414062 450.492188 349.570312 448.078125 348.097656 L 441.84375 344.496094 C 439.496094 343.117188 438.019531 340.203125 438.019531 336.097656 L 437.863281 247.394531 C 437.832031 239.0625 443.722656 228.910156 450.960938 224.742188 L 527.644531 180.4375 C 531.339844 178.339844 534.628906 178.152344 537.011719 179.53125 L 542.839844 182.945312 C 543.027344 183.039062 543.183594 183.132812 543.339844 183.226562 C 545.722656 184.574219 547.226562 187.488281 547.226562 191.65625 Z M 547.351562 280.324219 " fill-opacity="1" fill-rule="nonzero"/><path fill="#92b2f9" d="M 543.390625 183.246094 C 541.007812 181.839844 537.6875 182.050781 534.039062 184.15625 L 457.316406 228.4375 C 450.066406 232.621094 444.199219 242.765625 444.222656 251.089844 L 444.386719 339.773438 C 444.410156 343.914062 445.859375 346.8125 448.21875 348.191406 L 441.839844 344.484375 C 439.5 343.128906 438.027344 340.207031 438.027344 336.09375 L 437.863281 247.382812 C 437.839844 239.0625 443.710938 228.914062 450.957031 224.730469 L 527.65625 180.449219 C 531.328125 178.347656 534.625 178.136719 537.011719 179.539062 Z M 543.390625 183.246094 " fill-opacity="1" fill-rule="nonzero"/><path fill="#b0c4ff" d="M 534.035156 184.152344 C 541.289062 179.964844 547.1875 183.324219 547.210938 191.644531 L 547.367188 280.339844 C 547.390625 288.65625 541.527344 298.808594 534.273438 303 L 457.566406 347.273438 C 450.308594 351.460938 444.410156 348.101562 444.386719 339.78125 L 444.230469 251.085938 C 444.207031 242.769531 450.070312 232.613281 457.324219 228.425781 Z M 534.035156 184.152344 " fill-opacity="1" fill-rule="nonzero"/><path fill="#6a95d3" d="M 526.109375 242.574219 C 526.917969 242.328125 527.492188 242.828125 527.496094 243.777344 L 527.515625 251.046875 C 527.519531 251.996094 526.949219 253.15625 526.140625 253.839844 L 523.03125 256.480469 C 522.375 257.039062 521.875 257.914062 521.707031 258.757812 C 521.105469 261.730469 520.207031 264.734375 519.066406 267.6875 C 518.730469 268.554688 518.71875 269.382812 519.078125 269.828125 L 520.773438 271.980469 C 521.207031 272.550781 521.113281 273.652344 520.519531 274.675781 L 516.070312 282.382812 C 515.722656 282.984375 515.265625 283.453125 514.804688 283.71875 C 514.480469 283.90625 514.152344 283.996094 513.859375 283.960938 L 511.125 283.597656 C 510.839844 283.554688 510.515625 283.640625 510.191406 283.828125 C 509.871094 284.015625 509.546875 284.300781 509.257812 284.660156 C 507.269531 287.136719 505.117188 289.417969 502.847656 291.433594 C 502.195312 292.003906 501.6875 292.871094 501.535156 293.710938 L 500.804688 297.730469 C 500.625 298.761719 499.898438 299.839844 499.070312 300.320312 L 492.75 303.96875 C 491.914062 304.449219 491.191406 304.207031 491 303.390625 L 490.246094 300.226562 C 490.089844 299.570312 489.578125 299.285156 488.929688 299.46875 C 486.648438 300.082031 484.496094 300.28125 482.507812 300.109375 C 482.214844 300.082031 481.886719 300.167969 481.5625 300.355469 C 481.238281 300.542969 480.917969 300.828125 480.632812 301.199219 L 477.910156 304.710938 C 477.617188 305.085938 477.292969 305.375 476.964844 305.5625 C 476.503906 305.828125 476.046875 305.890625 475.695312 305.691406 L 471.210938 303.140625 C 470.621094 302.808594 470.515625 301.8125 470.941406 300.75 L 472.625 296.636719 C 472.980469 295.773438 472.972656 294.953125 472.625 294.480469 C 471.472656 292.859375 470.5625 290.90625 469.949219 288.644531 C 469.769531 288 469.269531 287.707031 468.617188 287.902344 L 465.488281 288.851562 C 464.679688 289.101562 464.105469 288.601562 464.105469 287.652344 L 464.082031 280.382812 C 464.082031 279.433594 464.652344 278.273438 465.457031 277.589844 L 468.578125 274.933594 C 469.230469 274.378906 469.730469 273.503906 469.902344 272.65625 C 470.5 269.695312 471.398438 266.699219 472.539062 263.753906 C 472.882812 262.882812 472.886719 262.054688 472.527344 261.605469 L 470.824219 259.449219 C 470.394531 258.878906 470.492188 257.765625 471.078125 256.753906 L 475.535156 249.042969 C 475.882812 248.441406 476.339844 247.972656 476.800781 247.707031 C 477.128906 247.519531 477.453125 247.429688 477.746094 247.464844 L 480.480469 247.828125 C 480.769531 247.867188 481.089844 247.78125 481.414062 247.597656 C 481.738281 247.410156 482.0625 247.121094 482.355469 246.753906 C 484.335938 244.289062 486.484375 242.011719 488.757812 240 C 489.410156 239.421875 489.914062 238.550781 490.070312 237.714844 L 490.800781 233.695312 C 490.988281 232.660156 491.707031 231.585938 492.542969 231.101562 L 498.863281 227.453125 C 499.691406 226.976562 500.421875 227.214844 500.605469 228.035156 L 501.359375 231.199219 C 501.515625 231.855469 502.027344 232.140625 502.675781 231.964844 C 504.953125 231.347656 507.109375 231.144531 509.105469 231.324219 C 509.394531 231.347656 509.71875 231.257812 510.039062 231.074219 C 510.363281 230.886719 510.6875 230.597656 510.972656 230.226562 L 513.695312 226.714844 C 513.988281 226.339844 514.316406 226.050781 514.640625 225.863281 C 515.101562 225.597656 515.558594 225.535156 515.910156 225.734375 L 520.390625 228.289062 C 520.984375 228.625 521.085938 229.617188 520.65625 230.679688 L 518.980469 234.78125 C 518.625 235.644531 518.640625 236.453125 518.980469 236.929688 C 520.132812 238.558594 521.042969 240.519531 521.664062 242.78125 C 521.835938 243.433594 522.335938 243.726562 522.996094 243.527344 Z M 495.839844 281.363281 C 503.371094 277.015625 509.445312 266.496094 509.421875 257.851562 C 509.398438 249.210938 503.285156 245.722656 495.75 250.070312 C 488.234375 254.410156 482.152344 264.941406 482.175781 273.578125 C 482.203125 282.222656 488.320312 285.703125 495.839844 281.363281 " fill-opacity="1" fill-rule="nonzero"/><path fill="#fc6c85" d="M 623.570312 762.621094 L 625.859375 790.21875 C 626.339844 796.011719 621.625 800.90625 615.816406 800.644531 L 562.699219 798.230469 C 558.703125 798.046875 554.71875 797.347656 551.023438 795.824219 C 543.039062 792.53125 539.945312 787.746094 541.769531 781.453125 C 543.261719 776.3125 547.640625 772.515625 552.792969 771.046875 L 588.140625 760.96875 Z M 623.570312 762.621094 " fill-opacity="1" fill-rule="nonzero"/><path fill="#f95070" d="M 625.664062 793.082031 C 624.683594 797.527344 620.640625 800.851562 615.816406 800.648438 L 562.695312 798.222656 C 558.710938 798.046875 554.726562 797.355469 551.027344 795.824219 C 543.027344 792.53125 539.9375 787.738281 541.753906 781.441406 C 542.707031 778.148438 544.875 775.40625 547.648438 773.5 C 547.472656 773.902344 547.300781 774.335938 547.183594 774.769531 C 545.367188 781.035156 548.457031 785.832031 556.429688 789.125 C 560.125 790.65625 564.113281 791.347656 568.125 791.519531 L 621.21875 793.945312 C 622.804688 794.003906 624.308594 793.714844 625.664062 793.082031 Z M 625.664062 793.082031 " fill-opacity="1" fill-rule="nonzero"/><path fill="#fc6c85" d="M 674.851562 746.742188 L 673.574219 772.296875 C 673.378906 779.679688 667.335938 785.566406 659.949219 785.566406 C 652.464844 785.566406 645.324219 782.394531 640.304688 776.84375 L 606.925781 741.53125 C 611.570312 735.179688 624.761719 736.703125 641.980469 743.613281 Z M 674.851562 746.742188 " fill-opacity="1" fill-rule="nonzero"/><path fill="#f95070" d="M 673.296875 774.625 C 672.054688 780.890625 666.539062 785.570312 659.953125 785.570312 C 656.195312 785.570312 652.558594 784.761719 649.207031 783.289062 C 645.855469 781.816406 642.824219 779.621094 640.308594 776.847656 L 606.917969 741.527344 C 608.132812 739.851562 609.953125 738.753906 612.261719 738.121094 L 643.199219 770.8125 C 645.710938 773.613281 648.746094 775.78125 652.09375 777.253906 C 655.445312 778.753906 659.085938 779.535156 662.839844 779.535156 C 667.058594 779.535156 670.839844 777.628906 673.296875 774.625 Z M 673.296875 774.625 " fill-opacity="1" fill-rule="nonzero"/><path fill="#35489e" d="M 688.839844 503.296875 L 677.484375 609.621094 C 676.734375 616.660156 676.871094 623.761719 677.890625 630.765625 L 681.148438 653.128906 C 682.113281 659.726562 682.289062 666.414062 681.675781 673.054688 L 675.011719 745.316406 C 675.121094 757.0625 642.28125 757.359375 642.171875 745.613281 L 632.695312 646.695312 L 618.101562 515.921875 L 671.058594 488.808594 Z M 688.839844 503.296875 " fill-opacity="1" fill-rule="nonzero"/><path fill="#263966" d="M 681.152344 653.121094 C 682.105469 659.734375 682.28125 666.40625 681.671875 673.050781 L 675 745.3125 C 675.058594 750.625 668.359375 753.601562 660.992188 754.148438 C 659.980469 751.40625 659.808594 748.285156 659.691406 745.28125 C 659.316406 735 659.257812 724.691406 659.230469 714.378906 C 659.230469 710.277344 659.199219 706.148438 659.835938 702.105469 C 660.964844 694.882812 664.054688 688.15625 665.960938 681.136719 C 667.894531 674.089844 668.5 666.207031 664.921875 659.851562 C 664.054688 658.292969 662.925781 656.847656 662.492188 655.113281 C 661.078125 649.394531 667.636719 644.054688 666.421875 638.304688 C 665.929688 635.9375 664.167969 634.003906 663.476562 631.664062 C 661.539062 624.960938 668.703125 616.386719 663.621094 611.589844 C 662.261719 610.347656 660.328125 609.800781 659.144531 608.382812 C 656.429688 605.148438 659.316406 600.5 661.453125 596.890625 C 667.722656 586.347656 667.460938 573.324219 667.027344 561.046875 C 666.941406 558.476562 666.796875 555.761719 665.585938 553.511719 C 664.804688 552.066406 663.621094 550.882812 662.984375 549.378906 C 660.242188 542.96875 668.472656 536.988281 669.164062 530.03125 C 669.773438 524.023438 664.542969 518.304688 665.929688 512.414062 C 666.652344 509.265625 669.136719 506.867188 671.503906 504.671875 C 674.132812 502.21875 677.3125 499.214844 680.777344 496.730469 L 688.835938 503.285156 L 677.484375 609.625 C 676.734375 616.671875 676.878906 623.75 677.890625 630.769531 Z M 681.152344 653.121094 " fill-opacity="1" fill-rule="nonzero"/><path fill="#35489e" d="M 564.664062 502.769531 C 564.664062 502.769531 557.4375 607.859375 560.8125 641.761719 C 563.800781 671.777344 587.53125 758.730469 587.53125 758.730469 C 589.457031 773.289062 624.359375 774.855469 624.359375 758.730469 L 620.824219 684.441406 C 620.535156 678.402344 619.339844 672.445312 617.28125 666.765625 C 611.734375 651.472656 612.621094 634.578125 619.714844 619.941406 C 636.585938 585.132812 648.816406 553.851562 643.136719 536.1875 L 591.542969 483.988281 Z M 564.664062 502.769531 " fill-opacity="1" fill-rule="nonzero"/><path fill="#263966" d="M 620.8125 684.429688 L 624.367188 758.742188 C 624.367188 768.992188 610.242188 772.082031 599.46875 769.222656 C 598.515625 766.019531 598.136719 762.699219 598.773438 759.375 C 599.726562 754.609375 602.617188 749.382812 599.929688 745.339844 C 599.003906 743.953125 597.503906 742.941406 596.808594 741.441406 C 595.507812 738.640625 597.273438 735.492188 598.601562 732.71875 C 604.234375 720.820312 601.605469 706.839844 598.859375 693.960938 C 598.253906 690.984375 597.5625 687.953125 595.828125 685.441406 C 594.988281 684.226562 593.890625 683.160156 593.257812 681.828125 C 592.363281 679.953125 592.449219 677.816406 592.507812 675.734375 C 592.652344 667.300781 591.667969 658.8125 589.617188 650.636719 C 588.171875 644.917969 586.210938 638.855469 588.171875 633.308594 C 590.222656 627.53125 596.375 622.882812 595.453125 616.847656 C 595.019531 614.015625 593.027344 611.589844 592.652344 608.761719 C 591.667969 601.597656 600.535156 597.292969 603.570312 590.738281 C 605.9375 585.511719 604.40625 579.128906 606.746094 573.871094 C 608.652344 569.597656 612.753906 566.851562 616.019531 563.503906 C 619.28125 560.152344 621.824219 555.070312 619.714844 550.941406 C 618.992188 549.523438 617.78125 548.371094 617.230469 546.894531 C 616.308594 544.238281 617.664062 541.410156 618.992188 538.953125 C 621.390625 534.535156 623.875 530 627.570312 526.621094 C 628.640625 525.640625 629.824219 524.773438 631.125 524.023438 L 639.855469 532.859375 C 642.394531 535.425781 644.023438 538.765625 644.367188 542.359375 C 646.113281 560.640625 634.765625 588.886719 619.714844 619.9375 C 615.699219 628.195312 613.679688 637.207031 613.679688 646.21875 C 613.679688 653.152344 614.863281 660.109375 617.289062 666.753906 C 619.339844 672.445312 620.523438 678.394531 620.8125 684.429688 Z M 620.8125 684.429688 " fill-opacity="1" fill-rule="nonzero"/><path fill="#54d391" d="M 676.429688 279.238281 C 634.484375 279.273438 600.632812 298.945312 571.605469 330.316406 C 567.113281 335.175781 564.664062 341.59375 564.664062 348.210938 L 564.664062 502.769531 C 572.730469 555.191406 697.898438 542.195312 689.832031 489.773438 C 685.566406 459.085938 684.488281 429.769531 687.289062 402.125 C 688.308594 392.070312 690.421875 382.164062 693.25 372.460938 C 703.046875 338.886719 705 308.324219 688.097656 284.988281 C 685.417969 281.289062 681 279.234375 676.429688 279.238281 Z M 676.429688 279.238281 " fill-opacity="1" fill-rule="nonzero"/><path fill="#54d391" d="M 687.277344 402.113281 C 684.476562 429.78125 685.574219 459.097656 689.820312 489.769531 C 697.90625 542.1875 572.71875 555.183594 564.660156 502.765625 L 564.660156 489.796875 C 571.652344 494.503906 578.640625 499.214844 585.632812 503.921875 C 590.453125 507.183594 595.710938 510.5625 601.546875 510.390625 C 605.011719 510.304688 608.304688 508.945312 611.65625 507.964844 C 619.078125 505.855469 627.082031 505.710938 634.589844 507.648438 C 637.160156 508.28125 639.933594 509.175781 642.390625 508.136719 C 644.789062 507.125 646.085938 504.613281 647.703125 502.5625 C 650.332031 499.269531 653.886719 497.164062 657.84375 495.835938 C 665.988281 493.089844 670.207031 484.742188 669.078125 476.222656 C 669.023438 475.820312 668.992188 475.414062 668.992188 474.980469 C 669.136719 468.628906 676.792969 464.585938 677.457031 458.261719 C 678.148438 451.933594 671.621094 447.054688 670.378906 440.816406 C 669.195312 434.894531 672.921875 429.117188 673.324219 423.082031 C 673.933594 414.417969 667.722656 405.925781 670.003906 397.550781 C 671.128906 393.363281 674.277344 389.839844 674.742188 385.535156 C 675.464844 378.777344 669.367188 372.425781 670.871094 365.8125 C 672.515625 358.707031 682.453125 353.679688 679.96875 346.808594 C 679.363281 345.074219 678.035156 343.746094 677.109375 342.15625 C 673.84375 336.496094 676.589844 329.449219 678.785156 323.269531 C 680.980469 317.117188 682.019531 309.03125 676.761719 305.101562 C 674.539062 303.457031 671.476562 302.878906 669.859375 300.625 C 668.820312 299.179688 668.589844 297.332031 668.589844 295.570312 C 668.617188 289.738281 672.140625 283.613281 676.992188 279.253906 C 681.382812 279.398438 685.542969 281.449219 688.085938 285 C 705.011719 308.335938 703.046875 338.894531 693.253906 372.453125 C 690.425781 382.15625 688.316406 392.0625 687.277344 402.113281 Z M 687.277344 402.113281 " fill-opacity="1" fill-rule="nonzero"/><path fill="#f7b2b2" d="M 471.785156 343.929688 C 471.785156 343.929688 468.328125 322.9375 463.289062 314.433594 C 462.660156 313.378906 461.097656 313.488281 460.597656 314.609375 L 457.074219 322.570312 C 456.398438 324.089844 454.507812 324.667969 453.121094 323.75 C 445.441406 318.671875 440.855469 310.996094 438.449219 301.488281 C 438.011719 299.753906 435.949219 298.964844 434.511719 300.03125 C 428.34375 304.613281 426.382812 313.136719 428.738281 325.703125 C 431.613281 333.6875 440.691406 345.871094 455.359375 359.316406 Z M 471.785156 343.929688 " fill-opacity="1" fill-rule="nonzero"/><path fill="#46c17e" d="M 596.417969 330.207031 C 587.78125 324.511719 576.308594 325.808594 569.164062 333.285156 L 521.964844 387.605469 C 520.515625 389.171875 518.042969 389.195312 516.5625 387.660156 L 472.058594 341.429688 C 464.4375 334.660156 448.285156 350.660156 454.726562 360.925781 C 454.726562 360.925781 492.433594 435.027344 517.726562 437.0625 C 541.132812 438.949219 580.15625 388.4375 601.492188 361.25 C 609.214844 351.414062 606.855469 337.089844 596.417969 330.207031 Z M 596.417969 330.207031 " fill-opacity="1" fill-rule="nonzero"/><path fill="#3caf6d" d="M 601.488281 361.246094 C 580.144531 388.425781 541.121094 438.9375 517.722656 437.0625 C 492.421875 435.039062 454.726562 360.929688 454.726562 360.929688 C 452.242188 356.972656 453.109375 352.179688 455.5625 348.164062 C 461.195312 352.265625 466.886719 356.683594 469.890625 362.921875 C 472.171875 367.71875 472.75 373.378906 476.011719 377.566406 C 480.605469 383.484375 490.023438 385.796875 491.554688 393.160156 C 491.898438 394.921875 491.726562 396.828125 492.363281 398.53125 C 494.039062 402.835938 499.902344 403.675781 502.90625 407.199219 C 503.945312 408.410156 504.636719 409.914062 505.707031 411.097656 C 508.796875 414.445312 514.226562 414.101562 518.472656 412.484375 C 522.71875 410.835938 526.675781 408.207031 531.210938 407.6875 C 534.792969 407.285156 538.664062 408.238281 541.957031 406.734375 C 544.847656 405.4375 546.609375 402.546875 548.226562 399.832031 C 550.160156 396.570312 552.097656 393.304688 554.03125 390.042969 C 556.023438 386.691406 558.277344 383.109375 561.886719 381.695312 C 563.765625 381.003906 565.816406 380.914062 567.664062 380.164062 C 575.695312 376.84375 574.394531 363.789062 581.558594 358.820312 C 584.9375 356.480469 589.90625 356.25 592.21875 352.84375 C 594.152344 349.953125 593.34375 346 594.644531 342.761719 C 595.972656 339.382812 599.582031 337.566406 603.25 337.507812 C 607.382812 344.785156 607.035156 354.171875 601.488281 361.246094 Z M 601.488281 361.246094 " fill-opacity="1" fill-rule="nonzero"/><path fill="#f7b2b2" d="M 645.714844 278.289062 C 646.957031 284.339844 631.664062 308 607.539062 292.691406 L 607.449219 279.644531 L 618.171875 266.113281 L 644.578125 265.761719 Z M 645.714844 278.289062 " fill-opacity="1" fill-rule="nonzero"/><path fill="#f7b2b2" d="M 585.550781 199.511719 C 579.511719 220.992188 578.125 242.875 581.957031 265.210938 C 583.398438 273.621094 590.453125 279.925781 598.984375 280.222656 C 609.410156 280.585938 620.753906 278.269531 632.679688 274.277344 L 631.96875 220.8125 L 592.84375 198.195312 Z M 585.550781 199.511719 " fill-opacity="1" fill-rule="nonzero"/><path fill="#eaa7a7" d="M 632.6875 274.273438 C 620.75 278.273438 609.398438 280.574219 598.96875 280.230469 C 592.617188 280 587.054688 276.421875 584.078125 271.140625 C 586.753906 272.992188 589.964844 274.066406 593.398438 274.195312 C 603.824219 274.566406 615.148438 272.238281 627.089844 268.238281 L 626.429688 217.597656 L 631.980469 220.824219 Z M 632.6875 274.273438 " fill-opacity="1" fill-rule="nonzero"/><path fill="#329e5e" d="M 645.714844 278.28125 C 645.714844 278.28125 629.378906 296.839844 607.53125 292.695312 L 597.5 306.683594 C 622.5 307.035156 644.886719 299.046875 650.289062 281.941406 Z M 645.714844 278.28125 " fill-opacity="1" fill-rule="nonzero"/><path fill="#353437" d="M 598.152344 170.703125 C 589.023438 166.949219 578.910156 173.265625 578.277344 183.113281 C 577.476562 193.199219 583.304688 200.230469 595.011719 204.546875 C 596.347656 205.039062 597.210938 206.324219 597.117188 207.746094 C 596.652344 214.875 597.226562 221.527344 600.449219 226.96875 C 600.90625 227.742188 601.074219 228.652344 600.828125 229.519531 L 597.96875 239.671875 C 597.578125 241.050781 598.296875 242.496094 599.625 243.023438 C 600.808594 243.492188 602.136719 243.089844 602.90625 242.078125 C 605.347656 238.871094 607.984375 237.175781 610.917969 237.890625 C 613.542969 238.527344 615.253906 241.097656 615.21875 243.800781 L 615.050781 257.074219 C 615.019531 259.742188 615.164062 262.425781 615.660156 265.046875 C 618.542969 280.277344 627.691406 282.707031 641.070312 277 C 643.800781 275.835938 645.972656 273.699219 647.375 271.085938 C 649.785156 266.597656 653.273438 261.5 657.417969 256.03125 C 660.484375 251.992188 663.136719 247.632812 665.214844 243.03125 C 666.984375 239.109375 668.332031 235.003906 669.160156 230.765625 C 671.777344 217.375 669.3125 206.179688 662.507812 196.871094 C 661.375 195.320312 660.464844 193.625 659.980469 191.769531 L 658.695312 186.871094 C 656.992188 180.378906 650.941406 175.996094 644.238281 176.402344 L 637.035156 176.839844 C 635.375 176.9375 633.730469 176.707031 632.136719 176.238281 C 624.53125 174.007812 616.175781 173 607.136719 173.101562 C 605.175781 173.121094 603.214844 172.789062 601.402344 172.042969 Z M 598.152344 170.703125 " fill-opacity="1" fill-rule="nonzero"/><path fill="#29282b" d="M 669.175781 230.75 C 668.339844 235.019531 666.992188 239.113281 665.203125 243.035156 C 663.121094 247.632812 660.496094 252 657.414062 256.019531 C 653.28125 261.496094 649.796875 266.601562 647.375 271.085938 C 645.984375 273.6875 643.800781 275.832031 641.070312 277.011719 C 639.023438 277.882812 637.097656 278.550781 635.257812 279.015625 C 635.472656 278.703125 635.65625 278.394531 635.839844 278.085938 C 638.230469 273.601562 641.71875 268.527344 645.882812 263.050781 C 648.925781 259 651.585938 254.632812 653.671875 250.035156 C 655.425781 246.117188 656.804688 242.019531 657.609375 237.785156 C 660.222656 224.375 657.761719 213.199219 650.949219 203.886719 C 649.835938 202.347656 648.914062 200.636719 648.449219 198.796875 L 647.15625 193.878906 C 645.445312 187.382812 639.394531 183.015625 632.695312 183.40625 L 625.5 183.855469 C 623.84375 183.945312 622.203125 183.730469 620.578125 183.253906 C 612.976562 181.03125 604.640625 180.011719 595.601562 180.125 C 593.640625 180.132812 591.660156 179.804688 589.859375 179.070312 L 586.59375 177.710938 C 584.519531 176.859375 582.371094 176.539062 580.285156 176.652344 C 583.761719 170.78125 591.222656 167.855469 598.160156 170.710938 L 601.390625 172.035156 C 603.226562 172.804688 605.175781 173.132812 607.132812 173.09375 C 616.175781 173.011719 624.546875 173.996094 632.148438 176.253906 C 633.734375 176.699219 635.378906 176.945312 637.035156 176.824219 L 644.230469 176.40625 C 650.925781 175.984375 656.980469 180.382812 658.691406 186.878906 L 659.980469 191.765625 C 660.480469 193.632812 661.367188 195.316406 662.515625 196.882812 C 669.296875 206.167969 671.789062 217.375 669.175781 230.75 Z M 669.175781 230.75 " fill-opacity="1" fill-rule="nonzero"/></svg>