<svg xmlns="http://www.w3.org/2000/svg" xmlns:xlink="http://www.w3.org/1999/xlink" width="1080" zoomAndPan="magnify" viewBox="0 0 810 809.999993" height="1080" preserveAspectRatio="xMidYMid meet" version="1.0"><defs><clipPath id="7e6e53d9e7"><path d="M 217.078125 270.585938 L 460.078125 270.585938 L 460.078125 513.585938 L 217.078125 513.585938 Z M 217.078125 270.585938 " clip-rule="nonzero"/></clipPath><clipPath id="1a0b87e945"><path d="M 0 120.28125 L 669 120.28125 L 669 544 L 0 544 Z M 0 120.28125 " clip-rule="nonzero"/></clipPath><clipPath id="3a7f0300f8"><path d="M 460.222656 384 L 810 384 L 810 750.980469 L 460.222656 750.980469 Z M 460.222656 384 " clip-rule="nonzero"/></clipPath><clipPath id="7027f18786"><path d="M 30 700.246094 L 810 700.246094 L 810 750.980469 L 30 750.980469 Z M 30 700.246094 " clip-rule="nonzero"/></clipPath></defs><rect x="-81" width="972" fill="#ffffff" y="-80.999999" height="971.999992" fill-opacity="1"/><rect x="-81" width="972" fill="#ffffff" y="-80.999999" height="971.999992" fill-opacity="1"/><g clip-path="url(#7e6e53d9e7)"><path fill="#315191" d="M 217.078125 270.585938 L 460.078125 270.585938 L 460.078125 513.585938 L 217.078125 513.585938 Z M 217.078125 270.585938 " fill-opacity="1" fill-rule="nonzero"/></g><path fill="#ddecff" d="M 662.664062 541.371094 C 659.34375 541.371094 655.5625 540.78125 653.035156 540.78125 L 1.558594 540.78125 L 1.558594 121.453125 L 665.972656 121.453125 L 665.972656 525.5625 C 665.972656 529.738281 665.546875 534.171875 665.972656 538.328125 C 666.152344 540.0625 665.824219 540.871094 665.835938 541.117188 C 664.882812 541.300781 663.800781 541.371094 662.664062 541.371094 M 342.828125 433.316406 L 342.828125 456.238281 L 637.09375 456.238281 L 637.09375 433.316406 L 342.828125 433.316406 M 162.75 422.449219 C 162.820312 422.449219 162.886719 422.449219 162.957031 422.449219 C 162.976562 422.449219 163 422.449219 163.023438 422.449219 C 163.042969 422.449219 163.066406 422.449219 163.085938 422.449219 C 163.15625 422.449219 163.226562 422.449219 163.292969 422.449219 C 241.8125 421.535156 305.613281 357.726562 306.527344 279.203125 C 306.53125 279.113281 306.53125 279.019531 306.53125 278.929688 C 306.53125 278.835938 306.53125 278.746094 306.527344 278.652344 C 305.613281 200.128906 241.816406 136.328125 163.304688 135.410156 C 163.234375 135.40625 163.164062 135.40625 163.09375 135.40625 C 163.070312 135.40625 163.042969 135.40625 163.023438 135.40625 C 163 135.40625 162.976562 135.40625 162.957031 135.40625 C 162.882812 135.40625 162.8125 135.40625 162.738281 135.410156 C 115.523438 135.996094 71.28125 159.015625 44.484375 198.046875 C 19.527344 234.40625 13.289062 280.8125 26.367188 322.726562 C 26.390625 322.804688 26.414062 322.886719 26.445312 322.96875 C 26.472656 323.058594 26.503906 323.152344 26.535156 323.242188 C 46.574219 382.640625 99.992188 421.75 162.75 422.449219 M 342.828125 384.632812 L 342.828125 407.554688 L 637.09375 407.554688 L 637.09375 384.632812 L 342.828125 384.632812 M 342.828125 335.953125 L 342.828125 358.875 L 637.09375 358.875 L 637.09375 335.953125 L 342.828125 335.953125 M 342.828125 287.273438 L 342.828125 310.195312 L 637.09375 310.195312 L 637.09375 287.273438 L 342.828125 287.273438 M 342.828125 238.589844 L 342.828125 261.511719 L 637.09375 261.511719 L 637.09375 238.589844 L 342.828125 238.589844 M 342.828125 189.910156 L 342.828125 212.828125 L 637.09375 212.828125 L 637.09375 189.910156 L 342.828125 189.910156 " fill-opacity="1" fill-rule="nonzero"/><path fill="#ff6450" d="M 38.316406 311.855469 C 29.257812 276.207031 35.078125 238.492188 55.535156 207.464844 C 77.964844 173.449219 115.5625 152.734375 155.796875 150.128906 L 155.796875 218.742188 C 125.730469 222.316406 102.417969 247.898438 102.417969 278.929688 C 102.417969 282.941406 102.808594 286.867188 103.550781 290.660156 L 38.316406 311.855469 " fill-opacity="1" fill-rule="nonzero"/><path fill="#ddecff" d="M 26.535156 323.242188 C 26.503906 323.152344 26.472656 323.058594 26.445312 322.96875 C 26.472656 323.058594 26.503906 323.152344 26.535156 323.242188 M 26.367188 322.726562 C 13.289062 280.8125 19.527344 234.40625 44.484375 198.046875 C 71.28125 159.015625 115.523438 135.996094 162.738281 135.410156 C 158.957031 135.53125 155.796875 138.84375 155.796875 142.632812 L 155.796875 218.742188 L 155.796875 150.128906 C 115.5625 152.734375 77.964844 173.449219 55.535156 207.464844 C 35.078125 238.492188 29.257812 276.207031 38.316406 311.855469 L 103.550781 290.660156 L 31.492188 314.074219 C 28.007812 315.210938 25.269531 318.957031 26.367188 322.726562 M 163.304688 135.410156 C 163.210938 135.40625 163.117188 135.40625 163.023438 135.40625 C 163.042969 135.40625 163.070312 135.40625 163.09375 135.40625 C 163.164062 135.40625 163.234375 135.40625 163.304688 135.410156 " fill-opacity="1" fill-rule="nonzero"/><path fill="#874a51" d="M 155.796875 407.738281 C 104.859375 404.574219 61.421875 373.1875 42.738281 325.609375 L 108.011719 304.398438 C 116.667969 323.066406 134.542969 336.585938 155.796875 339.113281 L 155.796875 407.738281 " fill-opacity="1" fill-rule="nonzero"/><path fill="#ddecff" d="M 163.085938 422.449219 C 163.066406 422.449219 163.042969 422.449219 163.023438 422.449219 C 163.113281 422.449219 163.199219 422.449219 163.292969 422.449219 C 163.226562 422.449219 163.15625 422.449219 163.085938 422.449219 M 162.75 422.449219 C 99.992188 421.75 46.574219 382.640625 26.535156 323.242188 C 26.503906 323.152344 26.472656 323.058594 26.445312 322.96875 C 26.414062 322.886719 26.390625 322.804688 26.367188 322.726562 C 25.269531 318.957031 28.007812 315.210938 31.492188 314.074219 L 103.550781 290.660156 C 104.496094 295.46875 106.007812 300.070312 108.011719 304.398438 L 42.738281 325.609375 C 61.421875 373.1875 104.859375 404.574219 155.796875 407.738281 L 155.796875 339.113281 L 155.796875 415.222656 C 155.796875 419.011719 158.957031 422.332031 162.75 422.449219 " fill-opacity="1" fill-rule="nonzero"/><path fill="#95cbf0" d="M 170.25 407.726562 L 170.25 339.113281 C 197.945312 335.820312 219.910156 313.855469 223.199219 286.152344 L 291.808594 286.152344 C 287.585938 351.277344 235.367188 403.507812 170.25 407.726562 " fill-opacity="1" fill-rule="nonzero"/><path fill="#ddecff" d="M 162.957031 422.449219 C 162.886719 422.449219 162.820312 422.449219 162.75 422.449219 C 158.957031 422.332031 155.796875 419.011719 155.796875 415.222656 L 155.796875 339.113281 C 158.164062 339.394531 160.578125 339.539062 163.023438 339.539062 C 165.464844 339.539062 167.878906 339.394531 170.25 339.113281 L 170.25 407.726562 C 235.367188 403.507812 287.585938 351.277344 291.808594 286.152344 L 299.300781 286.152344 C 303.089844 286.152344 306.40625 282.996094 306.527344 279.203125 C 305.613281 357.726562 241.8125 421.535156 163.292969 422.449219 C 163.199219 422.449219 163.113281 422.449219 163.023438 422.449219 C 163 422.449219 162.976562 422.449219 162.957031 422.449219 M 306.53125 278.929688 C 306.53125 278.835938 306.527344 278.746094 306.527344 278.652344 C 306.53125 278.746094 306.53125 278.835938 306.53125 278.929688 " fill-opacity="1" fill-rule="nonzero"/><path fill="#ffc074" d="M 291.808594 271.699219 L 223.199219 271.699219 C 219.910156 244.003906 197.945312 222.035156 170.25 218.742188 L 170.25 150.128906 C 235.367188 154.347656 287.585938 206.578125 291.808594 271.699219 " fill-opacity="1" fill-rule="nonzero"/><path fill="#ddecff" d="M 299.300781 286.152344 L 223.199219 286.152344 C 223.480469 283.785156 223.625 281.375 223.625 278.929688 C 223.625 276.480469 223.480469 274.070312 223.199219 271.699219 L 291.808594 271.699219 C 287.585938 206.578125 235.367188 154.347656 170.25 150.128906 L 170.25 218.742188 C 167.878906 218.460938 165.464844 218.316406 163.023438 218.316406 C 160.578125 218.316406 158.164062 218.460938 155.796875 218.742188 L 155.796875 142.632812 C 155.796875 138.84375 158.957031 135.53125 162.738281 135.410156 C 162.8125 135.40625 162.882812 135.40625 162.957031 135.40625 C 162.976562 135.40625 163 135.40625 163.023438 135.40625 C 163.117188 135.40625 163.210938 135.40625 163.304688 135.410156 C 241.816406 136.328125 305.613281 200.128906 306.527344 278.652344 C 306.527344 278.746094 306.53125 278.835938 306.53125 278.929688 C 306.53125 279.019531 306.53125 279.113281 306.527344 279.203125 C 306.40625 282.996094 303.089844 286.152344 299.300781 286.152344 " fill-opacity="1" fill-rule="nonzero"/><path fill="#ddecff" d="M 163.023438 339.539062 C 160.578125 339.539062 158.164062 339.394531 155.796875 339.113281 C 134.542969 336.585938 116.667969 323.066406 108.011719 304.398438 C 106.007812 300.070312 104.496094 295.46875 103.550781 290.660156 C 102.808594 286.867188 102.417969 282.941406 102.417969 278.929688 C 102.417969 247.898438 125.730469 222.316406 155.796875 218.742188 C 158.164062 218.460938 160.578125 218.316406 163.023438 218.316406 C 165.464844 218.316406 167.878906 218.460938 170.25 218.742188 C 197.945312 222.035156 219.910156 244.003906 223.199219 271.699219 C 223.480469 274.070312 223.625 276.480469 223.625 278.929688 C 223.625 281.375 223.480469 283.785156 223.199219 286.152344 C 219.910156 313.855469 197.945312 335.820312 170.25 339.113281 C 167.878906 339.394531 165.464844 339.539062 163.023438 339.539062 M 185.882812 272.984375 C 180.8125 272.984375 176.679688 274.953125 173.480469 278.882812 C 170.285156 282.816406 168.683594 288.417969 168.683594 295.695312 C 168.683594 302.972656 170.285156 308.617188 173.480469 312.617188 C 176.679688 316.625 180.8125 318.628906 185.882812 318.628906 C 190.953125 318.628906 195.089844 316.625 198.285156 312.617188 C 201.484375 308.617188 203.078125 302.972656 203.078125 295.695312 C 203.078125 288.417969 201.484375 282.816406 198.285156 278.882812 C 195.089844 274.953125 190.953125 272.984375 185.882812 272.984375 M 175.742188 243.878906 L 136.382812 318.628906 L 144.210938 318.628906 L 183.457031 243.878906 L 175.742188 243.878906 M 134.179688 243.878906 C 129.105469 243.878906 124.972656 245.84375 121.777344 249.773438 C 118.582031 253.707031 116.980469 259.3125 116.980469 266.589844 C 116.980469 273.863281 118.582031 279.507812 121.777344 283.515625 C 124.972656 287.519531 129.105469 289.523438 134.179688 289.523438 C 139.25 289.523438 143.382812 287.519531 146.582031 283.515625 C 149.777344 279.507812 151.375 273.863281 151.375 266.589844 C 151.375 259.3125 149.777344 253.707031 146.582031 249.773438 C 143.382812 245.84375 139.25 243.878906 134.179688 243.878906 M 185.882812 311.242188 C 183.53125 311.242188 181.601562 310.011719 180.097656 307.546875 C 178.589844 305.085938 177.835938 301.136719 177.835938 295.695312 C 177.835938 290.257812 178.589844 286.339844 180.097656 283.957031 C 181.601562 281.566406 183.53125 280.371094 185.882812 280.371094 C 188.234375 280.371094 190.164062 281.566406 191.671875 283.957031 C 193.175781 286.339844 193.929688 290.257812 193.929688 295.695312 C 193.929688 301.136719 193.175781 305.085938 191.671875 307.546875 C 190.164062 310.011719 188.234375 311.242188 185.882812 311.242188 M 134.179688 282.136719 C 131.824219 282.136719 129.894531 280.90625 128.390625 278.441406 C 126.882812 275.980469 126.128906 272.027344 126.128906 266.589844 C 126.128906 261.148438 126.882812 257.238281 128.390625 254.847656 C 129.894531 252.457031 131.824219 251.261719 134.179688 251.261719 C 136.53125 251.261719 138.457031 252.457031 139.96875 254.847656 C 141.472656 257.238281 142.226562 261.148438 142.226562 266.589844 C 142.226562 272.027344 141.472656 275.980469 139.96875 278.441406 C 138.457031 280.90625 136.53125 282.136719 134.179688 282.136719 " fill-opacity="1" fill-rule="nonzero"/><path fill="#739ad4" d="M 185.882812 318.628906 C 180.8125 318.628906 176.679688 316.625 173.480469 312.617188 C 170.285156 308.617188 168.683594 302.972656 168.683594 295.695312 C 168.683594 288.417969 170.285156 282.816406 173.480469 278.882812 C 176.679688 274.953125 180.8125 272.984375 185.882812 272.984375 C 190.953125 272.984375 195.089844 274.953125 198.285156 278.882812 C 201.484375 282.816406 203.078125 288.417969 203.078125 295.695312 C 203.078125 302.972656 201.484375 308.617188 198.285156 312.617188 C 195.089844 316.625 190.953125 318.628906 185.882812 318.628906 M 185.882812 280.371094 C 183.53125 280.371094 181.601562 281.566406 180.097656 283.957031 C 178.589844 286.339844 177.835938 290.257812 177.835938 295.695312 C 177.835938 301.136719 178.589844 305.085938 180.097656 307.546875 C 181.601562 310.011719 183.53125 311.242188 185.882812 311.242188 C 188.234375 311.242188 190.164062 310.011719 191.671875 307.546875 C 193.175781 305.085938 193.929688 301.136719 193.929688 295.695312 C 193.929688 290.257812 193.175781 286.339844 191.671875 283.957031 C 190.164062 281.566406 188.234375 280.371094 185.882812 280.371094 M 144.210938 318.628906 L 136.382812 318.628906 L 175.742188 243.878906 L 183.457031 243.878906 L 144.210938 318.628906 M 134.179688 289.523438 C 129.105469 289.523438 124.972656 287.519531 121.777344 283.515625 C 118.582031 279.507812 116.980469 273.863281 116.980469 266.589844 C 116.980469 259.3125 118.582031 253.707031 121.777344 249.773438 C 124.972656 245.84375 129.105469 243.878906 134.179688 243.878906 C 139.25 243.878906 143.382812 245.84375 146.582031 249.773438 C 149.777344 253.707031 151.375 259.3125 151.375 266.589844 C 151.375 273.863281 149.777344 279.507812 146.582031 283.515625 C 143.382812 287.519531 139.25 289.523438 134.179688 289.523438 M 134.179688 251.261719 C 131.824219 251.261719 129.894531 252.457031 128.390625 254.847656 C 126.882812 257.238281 126.128906 261.148438 126.128906 266.589844 C 126.128906 272.027344 126.882812 275.980469 128.390625 278.441406 C 129.894531 280.90625 131.824219 282.136719 134.179688 282.136719 C 136.53125 282.136719 138.457031 280.90625 139.96875 278.441406 C 141.472656 275.980469 142.226562 272.027344 142.226562 266.589844 C 142.226562 261.148438 141.472656 257.238281 139.96875 254.847656 C 138.457031 252.457031 136.53125 251.261719 134.179688 251.261719 " fill-opacity="1" fill-rule="nonzero"/><path fill="#95cbf0" d="M 342.828125 212.828125 L 637.09375 212.828125 L 637.09375 189.910156 L 342.828125 189.910156 Z M 342.828125 212.828125 " fill-opacity="1" fill-rule="nonzero"/><path fill="#95cbf0" d="M 342.828125 261.511719 L 637.09375 261.511719 L 637.09375 238.589844 L 342.828125 238.589844 Z M 342.828125 261.511719 " fill-opacity="1" fill-rule="nonzero"/><path fill="#95cbf0" d="M 342.828125 310.195312 L 637.09375 310.195312 L 637.09375 287.273438 L 342.828125 287.273438 Z M 342.828125 310.195312 " fill-opacity="1" fill-rule="nonzero"/><path fill="#95cbf0" d="M 342.828125 358.875 L 637.09375 358.875 L 637.09375 335.953125 L 342.828125 335.953125 Z M 342.828125 358.875 " fill-opacity="1" fill-rule="nonzero"/><path fill="#95cbf0" d="M 342.828125 407.554688 L 637.09375 407.554688 L 637.09375 384.632812 L 342.828125 384.632812 Z M 342.828125 407.554688 " fill-opacity="1" fill-rule="nonzero"/><path fill="#95cbf0" d="M 342.828125 456.238281 L 637.09375 456.238281 L 637.09375 433.316406 L 342.828125 433.316406 Z M 342.828125 456.238281 " fill-opacity="1" fill-rule="nonzero"/><g clip-path="url(#1a0b87e945)"><path fill="#5c9ed4" d="M 663.175781 543.546875 C 661.058594 543.546875 658.679688 543.191406 656.996094 543.191406 L 1.558594 543.191406 C 0.00390625 543.191406 0.0078125 540.78125 1.558594 540.78125 L 653.035156 540.78125 C 655.5625 540.78125 659.34375 541.371094 662.664062 541.371094 C 663.800781 541.371094 664.882812 541.300781 665.835938 541.117188 C 665.824219 540.871094 666.152344 540.0625 665.972656 538.328125 C 665.546875 534.171875 665.972656 529.738281 665.972656 525.5625 L 665.972656 121.453125 C 665.972656 120.675781 666.574219 120.289062 667.175781 120.289062 C 667.777344 120.289062 668.382812 120.679688 668.382812 121.453125 L 668.382812 541.988281 C 668.382812 542.640625 667.828125 543.191406 667.175781 543.191406 C 666.953125 543.191406 666.65625 543.144531 666.390625 543.144531 C 666.261719 543.144531 666.136719 543.15625 666.035156 543.191406 C 665.226562 543.457031 664.234375 543.546875 663.175781 543.546875 " fill-opacity="1" fill-rule="nonzero"/></g><path fill="#f2b1a5" d="M 516.625 400.046875 C 550.3125 433.320312 625.019531 536.757812 625.019531 536.757812 C 613.746094 589.476562 555.191406 619.457031 555.191406 619.457031 C 512.671875 515.582031 494.257812 432.621094 494.257812 432.621094 L 516.625 400.046875 " fill-opacity="1" fill-rule="nonzero"/><g clip-path="url(#3a7f0300f8)"><path fill="#ff4931" d="M 801.988281 460.40625 C 801.988281 460.40625 780.347656 399.699219 735.839844 384.253906 L 670.191406 384.253906 L 642.546875 392.632812 C 599.566406 404.671875 582.382812 445.167969 582.382812 445.167969 C 553.828125 506.546875 541.027344 533.957031 530.25 596.210938 C 530.25 596.210938 452.703125 714.0625 461.371094 725.726562 C 461.371094 725.726562 593.472656 734.160156 660.691406 746.167969 C 660.691406 746.167969 805.269531 771.402344 820.890625 701.097656 C 820.890625 701.097656 822.808594 513.625 801.988281 460.40625 " fill-opacity="1" fill-rule="nonzero"/></g><path fill="#f2b1a5" d="M 622.628906 288.554688 C 622.628906 288.554688 618.359375 278.1875 626.472656 243.882812 C 626.472656 243.882812 641.671875 195.578125 687.988281 197.222656 C 689.664062 197.28125 691.792969 197.707031 693.414062 198.296875 C 736.847656 214.074219 729.546875 260.445312 729.546875 260.445312 C 727.257812 275.636719 722.5 287.664062 717.867188 296.402344 C 711.867188 307.710938 697.65625 317.445312 697.65625 317.445312 C 680.734375 329.011719 645.734375 330.480469 636.824219 327.632812 C 629.8125 325.394531 626.398438 310.445312 622.628906 288.554688 " fill-opacity="1" fill-rule="nonzero"/><path fill="#f2b1a5" d="M 653.308594 299.777344 C 654.523438 356.984375 642.546875 375.058594 642.546875 375.058594 C 614.214844 404.414062 730.007812 375.464844 730.007812 375.464844 C 714.082031 345.097656 718.03125 306.957031 718.03125 306.957031 C 691.648438 305.464844 653.308594 299.777344 653.308594 299.777344 " fill-opacity="1" fill-rule="nonzero"/><path fill="#722a33" d="M 655.046875 329.160156 C 671.019531 329.367188 694.539062 324.996094 705.925781 312.398438 C 706.964844 311.25 705.265625 309.542969 704.222656 310.695312 C 693.300781 322.773438 670.25 326.949219 655.046875 326.75 C 653.5 326.730469 653.5 329.140625 655.046875 329.160156 " fill-opacity="1" fill-rule="nonzero"/><path fill="#f2b1a5" d="M 626.472656 243.882812 C 622.898438 274.160156 610.457031 278.289062 610.457031 278.289062 C 605.902344 289.007812 629.792969 294.5 629.792969 294.5 C 628.449219 281.535156 626.472656 243.882812 626.472656 243.882812 " fill-opacity="1" fill-rule="nonzero"/><path fill="#722a33" d="M 632.550781 269.332031 C 635.214844 270.332031 638.210938 268.96875 639.214844 266.304688 L 640.300781 263.390625 C 641.300781 260.730469 639.9375 257.730469 637.273438 256.730469 C 634.605469 255.730469 631.609375 257.097656 630.613281 259.761719 L 629.519531 262.671875 C 628.523438 265.335938 629.886719 268.335938 632.550781 269.332031 " fill-opacity="1" fill-rule="nonzero"/><path fill="#722a33" d="M 629.792969 250.90625 C 636.296875 251.5 646.476562 254.464844 650.25 260.34375 C 653.703125 265.726562 662.335938 260.734375 658.859375 255.3125 C 652.960938 246.117188 640.144531 241.882812 629.792969 240.933594 C 623.410156 240.351562 623.449219 250.328125 629.792969 250.90625 " fill-opacity="1" fill-rule="nonzero"/><path fill="#722a33" d="M 742.089844 207.523438 C 740.371094 204.851562 738.644531 196.925781 731.847656 194.136719 C 689.042969 176.574219 654.113281 183.035156 634.910156 197.179688 C 620.269531 207.96875 617.742188 219.863281 629.792969 240.933594 C 632.050781 244.875 647.640625 254.214844 657.414062 260.625 C 660.503906 266.992188 661.0625 282.347656 662.9375 291.414062 C 667.65625 314.1875 711.851562 337.03125 716.617188 331.890625 C 731.699219 315.613281 742.007812 300.734375 752.78125 286.839844 C 772.613281 251.875 771.289062 227.335938 742.089844 207.523438 " fill-opacity="1" fill-rule="nonzero"/><path fill="#f2b1a5" d="M 664.191406 268.316406 C 673.46875 252.539062 681.035156 263.140625 681.035156 263.140625 C 685.882812 276.839844 667.660156 288.34375 667.660156 288.34375 C 660.886719 291.679688 664.191406 268.316406 664.191406 268.316406 " fill-opacity="1" fill-rule="nonzero"/><path fill="#ff4931" d="M 741.542969 386.65625 C 741.542969 384.078125 734.449219 361.753906 734.449219 361.753906 C 697.871094 381.691406 632.867188 370.78125 632.867188 370.78125 C 630.621094 384.253906 629.792969 397.210938 629.792969 397.210938 C 694.675781 406.53125 741.542969 386.65625 741.542969 386.65625 " fill-opacity="1" fill-rule="nonzero"/><g clip-path="url(#7027f18786)"><path fill="#ffb55c" d="M 899.824219 750.980469 L 48.625 750.980469 C 38.402344 750.980469 30.039062 742.617188 30.039062 732.390625 L 30.039062 719.0625 C 30.039062 708.839844 38.402344 700.472656 48.625 700.472656 L 899.824219 700.472656 C 910.050781 700.472656 918.414062 708.839844 918.414062 719.0625 L 918.414062 732.390625 C 918.414062 742.617188 910.050781 750.980469 899.824219 750.980469 " fill-opacity="1" fill-rule="nonzero"/></g><path fill="#722a33" d="M 659.660156 258.066406 C 659.710938 258.710938 659.75 259.347656 659.785156 259.988281 C 660.988281 282.441406 652.957031 298.160156 652.957031 298.160156 C 658.046875 300.457031 668.117188 294.5 668.117188 294.5 C 664.722656 278.289062 669.949219 256.402344 669.949219 256.402344 L 659.660156 258.066406 " fill-opacity="1" fill-rule="nonzero"/><path fill="#f2b1a5" d="M 568.699219 662.214844 C 599.351562 655.742188 640.628906 622 640.628906 622 L 694.117188 547.652344 C 714.824219 518.367188 652.957031 463.855469 652.957031 463.855469 C 630.402344 457.101562 521.234375 611.554688 521.234375 611.554688 C 498.230469 625.953125 568.699219 662.214844 568.699219 662.214844 " fill-opacity="1" fill-rule="nonzero"/><path fill="#ff6c61" d="M 663.386719 417.671875 C 607.492188 415.890625 542.511719 546.085938 542.511719 546.085938 C 573.425781 595.246094 642.34375 638.769531 642.34375 638.769531 C 744.660156 508.835938 722.910156 455.28125 722.910156 455.28125 C 720.089844 417.652344 663.386719 417.671875 663.386719 417.671875 " fill-opacity="1" fill-rule="nonzero"/><path fill="#f2b1a5" d="M 568.699219 662.214844 C 512.238281 695.792969 396.941406 508.492188 396.941406 508.492188 L 441.867188 478.285156 C 509.1875 536.84375 568.699219 595.539062 568.699219 595.539062 L 568.699219 662.214844 " fill-opacity="1" fill-rule="nonzero"/><path fill="#f2b1a5" d="M 412.101562 533.152344 C 357.925781 502.335938 355.136719 465.851562 355.136719 465.851562 C 356.15625 425.34375 334.402344 399.699219 334.402344 399.699219 C 332.46875 385.601562 412.101562 505.820312 412.101562 505.820312 L 412.101562 533.152344 " fill-opacity="1" fill-rule="nonzero"/><path fill="#722a33" d="M 335.886719 279.371094 C 336.5625 280.207031 336.929688 280.941406 337.109375 281.621094 C 337.285156 282.304688 337.269531 282.925781 337.171875 283.535156 C 337.074219 284.144531 336.902344 284.742188 336.757812 285.359375 C 336.617188 285.980469 336.507812 286.625 336.546875 287.335938 C 336.605469 288.347656 336.867188 289.378906 337.277344 290.425781 C 337.691406 291.46875 338.257812 292.527344 338.929688 293.585938 C 339.601562 294.640625 340.375 295.691406 341.210938 296.722656 C 342.039062 297.757812 342.933594 298.773438 343.832031 299.757812 C 344.121094 300.082031 347.007812 303.140625 347.28125 303.425781 C 347.558594 303.714844 347.742188 304 347.847656 304.265625 C 347.949219 304.527344 347.976562 304.773438 347.941406 304.992188 C 347.90625 305.210938 347.804688 305.398438 347.664062 305.546875 C 347.519531 305.695312 347.324219 305.800781 347.101562 305.859375 C 346.953125 305.894531 346.792969 305.910156 346.625 305.902344 C 346.453125 305.890625 346.273438 305.855469 346.089844 305.792969 C 345.90625 305.726562 345.714844 305.632812 345.527344 305.507812 C 345.34375 305.382812 345.15625 305.226562 344.972656 305.035156 C 344.628906 304.671875 341.121094 300.894531 340.773438 300.503906 C 339.882812 299.496094 339.015625 298.464844 338.195312 297.421875 C 337.382812 296.378906 336.621094 295.316406 335.945312 294.25 C 335.265625 293.183594 334.671875 292.105469 334.191406 291.023438 C 333.710938 289.941406 333.34375 288.859375 333.121094 287.777344 C 332.980469 287.085938 333.042969 286.308594 333.136719 285.496094 C 333.230469 284.683594 333.351562 283.832031 333.320312 283 C 333.289062 282.167969 333.113281 281.347656 332.605469 280.589844 C 332.105469 279.832031 331.269531 279.132812 329.933594 278.542969 C 329.566406 278.382812 329.195312 278.253906 328.816406 278.148438 C 328.441406 278.050781 328.058594 277.976562 327.671875 277.921875 C 327.289062 277.871094 326.902344 277.84375 326.511719 277.835938 C 326.125 277.828125 325.710938 277.855469 325.324219 277.882812 C 325.570312 277.71875 325.699219 277.449219 325.691406 277.152344 C 325.679688 276.859375 325.554688 276.523438 325.351562 276.207031 C 325.152344 275.882812 324.871094 275.570312 324.539062 275.320312 C 324.207031 275.070312 323.828125 274.875 323.433594 274.796875 C 324.511719 274.722656 325.621094 274.714844 326.730469 274.804688 C 327.839844 274.898438 328.949219 275.09375 330.027344 275.429688 C 331.105469 275.757812 332.152344 276.226562 333.140625 276.875 C 334.125 277.519531 335.050781 278.339844 335.886719 279.371094 " fill-opacity="1" fill-rule="nonzero"/><path fill="#722a33" d="M 316.828125 275.964844 C 317.027344 275.914062 319.804688 275.289062 319.804688 275.289062 C 319.542969 275.34375 319.15625 275.421875 318.871094 275.488281 C 318.582031 275.554688 318.335938 275.621094 318.046875 275.699219 C 317.757812 275.773438 317.46875 275.855469 317.183594 275.941406 C 316.898438 276.027344 316.613281 276.121094 316.328125 276.21875 L 316.679688 276.011719 L 316.828125 275.964844 " fill-opacity="1" fill-rule="nonzero"/><path fill="#722a33" d="M 318.414062 279.304688 C 318.589844 279.242188 318.703125 279.179688 318.878906 279.125 C 319.0625 279.070312 319.246094 279.015625 319.429688 278.96875 C 319.613281 278.917969 319.800781 278.871094 319.988281 278.828125 C 320.179688 278.78125 320.367188 278.742188 320.558594 278.703125 L 321.804688 278.476562 C 321.539062 278.542969 318.707031 279.300781 318.707031 279.300781 L 318.414062 279.304688 " fill-opacity="1" fill-rule="nonzero"/><path fill="#722a33" d="M 319.972656 275.253906 C 320.222656 275.203125 321.226562 275.019531 321.460938 274.980469 C 321.691406 274.945312 322.882812 274.761719 322.882812 274.761719 L 323.050781 274.757812 L 323.269531 274.773438 L 323.433594 274.796875 C 323.828125 274.875 324.203125 275.070312 324.539062 275.320312 C 324.867188 275.570312 325.152344 275.882812 325.351562 276.207031 C 325.554688 276.527344 325.679688 276.859375 325.691406 277.152344 C 325.699219 277.449219 325.570312 277.71875 325.324219 277.882812 L 325.171875 277.957031 L 324.972656 278.019531 C 324.757812 278.050781 321.496094 278.53125 321.496094 278.53125 L 320.558594 278.703125 C 320.371094 278.742188 320.179688 278.78125 319.988281 278.828125 C 319.800781 278.871094 319.613281 278.917969 319.429688 278.96875 C 319.246094 279.015625 319.0625 279.070312 318.878906 279.125 C 318.703125 279.179688 318.589844 279.242188 318.414062 279.304688 C 318.082031 279.425781 317.699219 279.558594 317.402344 279.707031 C 317.105469 279.859375 316.832031 280.023438 316.585938 280.207031 C 316.339844 280.390625 316.121094 280.589844 315.941406 280.8125 C 315.757812 281.03125 315.613281 281.273438 315.507812 281.539062 C 315.132812 282.472656 315.289062 283.320312 315.769531 284.09375 C 316.253906 284.871094 317.0625 285.574219 318.003906 286.238281 C 318.945312 286.898438 320.015625 287.515625 321.027344 288.113281 C 322.035156 288.710938 322.976562 289.289062 323.667969 289.878906 C 324.734375 290.789062 325.691406 291.753906 326.550781 292.761719 C 327.414062 293.769531 328.1875 294.820312 328.878906 295.894531 C 329.574219 296.972656 330.195312 298.078125 330.765625 299.195312 C 331.328125 300.3125 331.839844 301.445312 332.308594 302.574219 C 332.492188 303.007812 333.179688 304.75 333.34375 305.179688 C 333.503906 305.609375 334.132812 307.316406 334.28125 307.734375 C 334.363281 307.960938 334.398438 308.160156 334.402344 308.332031 C 334.402344 308.507812 334.367188 308.660156 334.300781 308.789062 C 334.238281 308.917969 334.144531 309.027344 334.027344 309.113281 C 333.910156 309.195312 333.773438 309.257812 333.621094 309.296875 C 333.386719 309.355469 333.121094 309.363281 332.84375 309.320312 C 332.5625 309.277344 332.273438 309.183594 331.996094 309.039062 C 331.71875 308.894531 331.460938 308.699219 331.234375 308.460938 C 331.015625 308.21875 330.828125 307.929688 330.707031 307.589844 C 330.589844 307.253906 329.285156 303.714844 329.140625 303.34375 C 328.660156 302.121094 328.125 300.878906 327.515625 299.65625 C 326.90625 298.429688 326.222656 297.226562 325.433594 296.082031 C 324.644531 294.9375 323.75 293.847656 322.722656 292.855469 C 321.695312 291.863281 320.53125 290.960938 319.207031 290.191406 C 318.472656 289.761719 317.726562 289.390625 317 289.023438 C 316.273438 288.65625 315.5625 288.292969 314.890625 287.886719 C 314.226562 287.476562 313.601562 287.023438 313.054688 286.46875 C 312.5 285.917969 312.027344 285.269531 311.644531 284.480469 C 311.105469 283.339844 310.890625 282.335938 310.933594 281.453125 C 310.976562 280.566406 311.277344 279.796875 311.765625 279.132812 C 312.253906 278.464844 312.925781 277.90625 313.710938 277.421875 C 314.492188 276.941406 315.390625 276.546875 316.328125 276.21875 C 316.613281 276.121094 316.898438 276.027344 317.183594 275.941406 C 317.46875 275.855469 317.757812 275.769531 318.046875 275.699219 C 318.335938 275.621094 318.582031 275.554688 318.871094 275.488281 C 319.160156 275.421875 319.519531 275.34375 319.804688 275.289062 L 319.972656 275.253906 " fill-opacity="1" fill-rule="nonzero"/><path fill="#722a33" d="M 351.632812 297.851562 C 351.890625 297.789062 352.175781 297.789062 352.472656 297.847656 C 352.765625 297.90625 353.066406 298.019531 353.359375 298.175781 C 353.644531 298.332031 353.925781 298.53125 354.171875 298.769531 C 354.421875 299.003906 354.640625 299.277344 354.808594 299.570312 L 363.335938 314.570312 L 331.320312 323.375 L 320.753906 307.945312 C 320.546875 307.648438 320.414062 307.347656 320.339844 307.0625 C 320.265625 306.777344 320.257812 306.503906 320.308594 306.257812 C 320.359375 306.011719 320.472656 305.796875 320.640625 305.625 C 320.808594 305.453125 321.035156 305.324219 321.3125 305.257812 L 329.140625 303.34375 C 329.285156 303.714844 330.589844 307.253906 330.707031 307.589844 C 330.828125 307.929688 331.015625 308.21875 331.234375 308.460938 C 331.460938 308.699219 331.71875 308.894531 331.996094 309.039062 C 332.273438 309.183594 332.5625 309.277344 332.84375 309.320312 C 333.121094 309.363281 333.386719 309.355469 333.621094 309.296875 C 333.773438 309.257812 333.910156 309.195312 334.027344 309.113281 C 334.144531 309.027344 334.238281 308.917969 334.300781 308.789062 C 334.367188 308.660156 334.402344 308.507812 334.402344 308.332031 C 334.398438 308.160156 334.363281 307.960938 334.28125 307.734375 C 334.132812 307.316406 333.011719 304.3125 332.839844 303.878906 C 332.667969 303.445312 332.492188 303.007812 332.308594 302.574219 L 340.773438 300.503906 C 341.121094 300.894531 344.628906 304.671875 344.972656 305.035156 C 345.15625 305.226562 345.34375 305.382812 345.527344 305.507812 C 345.714844 305.632812 345.90625 305.726562 346.089844 305.792969 C 346.273438 305.855469 346.453125 305.890625 346.625 305.902344 C 346.792969 305.910156 346.953125 305.894531 347.101562 305.859375 C 347.324219 305.800781 347.519531 305.695312 347.664062 305.546875 C 347.804688 305.398438 347.90625 305.210938 347.941406 304.992188 C 347.976562 304.773438 347.949219 304.527344 347.847656 304.265625 C 347.742188 304 347.558594 303.714844 347.28125 303.425781 C 347.007812 303.140625 344.121094 300.082031 343.832031 299.757812 L 351.632812 297.851562 " fill-opacity="1" fill-rule="nonzero"/><path fill="#722a33" d="M 364.007812 314.386719 C 364.21875 314.328125 364.453125 314.324219 364.695312 314.363281 C 364.9375 314.402344 365.1875 314.484375 365.429688 314.609375 C 365.675781 314.730469 365.914062 314.890625 366.128906 315.082031 C 366.34375 315.265625 366.535156 315.488281 366.695312 315.730469 L 367.367188 316.773438 C 367.527344 317.019531 367.636719 317.261719 367.695312 317.492188 C 367.753906 317.726562 367.765625 317.945312 367.726562 318.144531 C 367.691406 318.34375 367.609375 318.523438 367.480469 318.664062 C 367.359375 318.804688 367.1875 318.914062 366.976562 318.972656 L 333.554688 328.449219 C 333.316406 328.515625 333.058594 328.527344 332.796875 328.492188 C 332.53125 328.453125 332.261719 328.371094 331.996094 328.242188 C 331.734375 328.117188 331.480469 327.953125 331.253906 327.753906 C 331.023438 327.554688 330.824219 327.320312 330.660156 327.0625 L 329.957031 325.953125 C 329.796875 325.695312 329.691406 325.4375 329.632812 325.1875 C 329.582031 324.9375 329.578125 324.703125 329.625 324.488281 C 329.671875 324.277344 329.769531 324.085938 329.914062 323.9375 C 330.058594 323.785156 330.253906 323.671875 330.492188 323.605469 L 364.007812 314.386719 " fill-opacity="1" fill-rule="nonzero"/><path fill="#ffffff" d="M 388.003906 304.683594 L 493.652344 464.898438 L 413.425781 516.441406 L 297.507812 329.113281 L 329.359375 320.511719 L 331.320312 323.375 L 330.492188 323.605469 C 330.253906 323.671875 330.058594 323.785156 329.914062 323.9375 C 329.769531 324.085938 329.671875 324.277344 329.625 324.488281 C 329.578125 324.703125 329.582031 324.9375 329.632812 325.1875 C 329.691406 325.4375 329.796875 325.695312 329.957031 325.953125 L 330.660156 327.0625 C 330.824219 327.320312 331.023438 327.554688 331.253906 327.753906 C 331.480469 327.953125 331.734375 328.117188 331.996094 328.242188 C 332.261719 328.371094 332.53125 328.453125 332.796875 328.492188 C 333.058594 328.527344 333.316406 328.515625 333.554688 328.449219 L 366.976562 318.972656 C 367.1875 318.914062 367.359375 318.804688 367.480469 318.664062 C 367.609375 318.523438 367.691406 318.34375 367.726562 318.144531 C 367.765625 317.945312 367.753906 317.726562 367.695312 317.492188 C 367.636719 317.261719 367.527344 317.019531 367.367188 316.773438 L 366.695312 315.730469 C 366.535156 315.488281 366.34375 315.265625 366.128906 315.082031 C 365.914062 314.890625 365.675781 314.730469 365.429688 314.609375 C 365.1875 314.484375 364.9375 314.402344 364.695312 314.363281 C 364.453125 314.324219 364.21875 314.328125 364.007812 314.386719 L 363.335938 314.570312 L 361.742188 311.769531 L 388.003906 304.683594 " fill-opacity="1" fill-rule="nonzero"/><path fill="#722a33" d="M 387.898438 298.589844 C 388.394531 298.460938 388.941406 298.460938 389.511719 298.5625 C 390.082031 298.664062 390.671875 298.875 391.242188 299.171875 C 391.820312 299.472656 392.378906 299.859375 392.894531 300.316406 C 393.40625 300.777344 393.875 301.308594 394.265625 301.894531 L 505.886719 470.371094 C 506.324219 471.035156 506.65625 471.71875 506.886719 472.402344 C 507.109375 473.078125 507.226562 473.75 507.238281 474.371094 C 507.25 474.996094 507.152344 475.578125 506.941406 476.074219 C 506.738281 476.566406 506.417969 476.980469 505.992188 477.273438 L 419.984375 536.058594 C 419.398438 536.464844 418.734375 536.683594 418.039062 536.742188 C 417.34375 536.796875 416.617188 536.683594 415.902344 536.421875 C 415.1875 536.15625 414.484375 535.746094 413.835938 535.195312 C 413.1875 534.644531 412.597656 533.960938 412.101562 533.152344 L 287.542969 330.507812 C 287.117188 329.808594 286.84375 329.113281 286.722656 328.445312 C 286.601562 327.78125 286.625 327.148438 286.789062 326.578125 C 286.949219 326.007812 287.246094 325.503906 287.671875 325.101562 C 288.097656 324.695312 288.652344 324.390625 289.320312 324.21875 L 325.460938 314.824219 L 329.359375 320.511719 L 297.507812 329.113281 L 413.425781 516.441406 L 493.652344 464.898438 L 388.003906 304.683594 L 361.742188 311.769531 L 358.582031 306.210938 L 387.898438 298.589844 " fill-opacity="1" fill-rule="nonzero"/><path fill="#f2b1a5" d="M 449.242188 332.625 C 430.421875 340.25 425.636719 361.753906 425.636719 361.753906 C 422.707031 373.398438 457.214844 350.761719 457.214844 350.761719 L 449.242188 332.625 " fill-opacity="1" fill-rule="nonzero"/><path fill="#f2b1a5" d="M 519.195312 402.925781 C 508.46875 392.445312 503.472656 380.503906 500.324219 373.511719 C 496.976562 366.074219 494.882812 357.871094 491.398438 350.5625 C 488.242188 343.949219 480.078125 338.226562 474.214844 333.945312 C 468.148438 329.523438 461.828125 328.398438 454.355469 327.273438 C 449.511719 326.546875 447.777344 324.730469 445.828125 329.503906 C 443.484375 335.257812 443.972656 334.871094 446.160156 339.523438 C 442.179688 340.480469 439.3125 339.183594 436.855469 343.15625 C 434.722656 346.59375 435.277344 349.15625 437.726562 352.066406 C 432.308594 354.324219 424.402344 362.1875 434.144531 365.808594 C 432.847656 371.015625 424.753906 371.308594 429.773438 378.179688 C 432.875 382.425781 438.222656 384.300781 442.722656 381.445312 C 445.128906 393.925781 451.285156 402.6875 460.078125 411.601562 C 464.058594 415.636719 468.429688 420.148438 473.300781 423.207031 C 478.730469 426.609375 500.539062 449.859375 502.515625 455.28125 L 519.195312 402.925781 " fill-opacity="1" fill-rule="nonzero"/><path fill="#722a33" d="M 413.792969 388.757812 C 411.886719 386.738281 415.257812 380.425781 417.28125 378.519531 L 509.320312 291.636719 C 511.339844 289.730469 514.550781 289.820312 516.457031 291.839844 C 518.367188 293.863281 518.273438 297.078125 516.253906 298.984375 L 424.214844 385.867188 C 422.195312 387.777344 415.699219 390.777344 413.792969 388.757812 " fill-opacity="1" fill-rule="nonzero"/><path fill="#722a33" d="M 510.644531 297.335938 C 511.65625 298.40625 513.363281 298.457031 514.4375 297.441406 L 523.242188 289.132812 C 524.3125 288.117188 524.363281 286.410156 523.347656 285.339844 C 522.335938 284.265625 520.628906 284.214844 519.554688 285.226562 L 510.753906 293.539062 C 509.675781 294.550781 509.628906 296.257812 510.644531 297.335938 " fill-opacity="1" fill-rule="nonzero"/><path fill="#722a33" d="M 517.734375 294.332031 C 527.304688 304.472656 493.359375 333.046875 493.359375 333.046875 C 490.742188 335.226562 490.152344 332.886719 490.152344 332.886719 C 488.925781 331.875 506.503906 313.828125 506.503906 313.828125 C 516.996094 301.902344 511.734375 298.039062 511.734375 298.039062 L 517.734375 294.332031 " fill-opacity="1" fill-rule="nonzero"/><path fill="#722a33" d="M 407.730469 394.480469 C 408.476562 395.273438 409.734375 395.308594 410.519531 394.5625 L 421.191406 384.492188 C 421.980469 383.746094 422.015625 382.492188 421.269531 381.699219 C 420.527344 380.914062 419.269531 380.875 418.480469 381.621094 L 407.8125 391.691406 C 407.023438 392.4375 406.988281 393.691406 407.730469 394.480469 " fill-opacity="1" fill-rule="nonzero"/><path fill="#f2b1a5" d="M 465.648438 377.898438 C 446.800781 386.261719 444.738281 331.71875 444.738281 331.71875 C 447.761719 324.683594 457.214844 327.878906 457.214844 327.878906 C 486.144531 364.621094 465.648438 377.898438 465.648438 377.898438 " fill-opacity="1" fill-rule="nonzero"/><path fill="#722a33" d="M 694.117188 700.472656 C 766.101562 596.335938 777.902344 455.28125 777.902344 455.28125 C 778.863281 388.09375 861.730469 412.742188 861.730469 412.742188 C 939.78125 417.652344 863.65625 700.472656 863.65625 700.472656 L 694.117188 700.472656 " fill-opacity="1" fill-rule="nonzero"/><path fill="#ff4931" d="M 106.609375 700.472656 L 48.257812 700.472656 L 48.257812 495.304688 L 106.609375 495.304688 L 106.609375 700.472656 " fill-opacity="1" fill-rule="nonzero"/><path fill="#722a33" d="M 177.167969 700.472656 L 118.820312 700.472656 L 118.820312 495.304688 L 177.167969 495.304688 L 177.167969 700.472656 " fill-opacity="1" fill-rule="nonzero"/><path fill="#83c2ed" d="M 247.671875 700.472656 L 189.320312 700.472656 L 189.320312 495.304688 L 247.671875 495.304688 L 247.671875 700.472656 " fill-opacity="1" fill-rule="nonzero"/><path fill="#ffb55c" d="M 326.710938 700.472656 L 268.363281 700.472656 L 268.363281 495.304688 L 326.710938 495.304688 L 326.710938 700.472656 " fill-opacity="1" fill-rule="nonzero"/><path fill="#ffffff" d="M 91.804688 527.128906 C 91.804688 535.0625 85.371094 541.5 77.433594 541.5 C 69.496094 541.5 63.0625 535.0625 63.0625 527.128906 C 63.0625 519.191406 69.496094 512.753906 77.433594 512.753906 C 85.371094 512.753906 91.804688 519.191406 91.804688 527.128906 " fill-opacity="1" fill-rule="nonzero"/><path fill="#ffffff" d="M 86.886719 667.027344 L 67.980469 667.027344 L 67.980469 559.394531 L 86.886719 559.394531 L 86.886719 667.027344 " fill-opacity="1" fill-rule="nonzero"/><path fill="#ffffff" d="M 162.363281 527.128906 C 162.363281 535.0625 155.929688 541.5 147.996094 541.5 C 140.058594 541.5 133.628906 535.0625 133.628906 527.128906 C 133.628906 519.191406 140.058594 512.753906 147.996094 512.753906 C 155.929688 512.753906 162.363281 519.191406 162.363281 527.128906 " fill-opacity="1" fill-rule="nonzero"/><path fill="#ffffff" d="M 157.449219 667.027344 L 138.542969 667.027344 L 138.542969 559.394531 L 157.449219 559.394531 L 157.449219 667.027344 " fill-opacity="1" fill-rule="nonzero"/><path fill="#ffffff" d="M 232.863281 527.128906 C 232.863281 535.0625 226.429688 541.5 218.496094 541.5 C 210.558594 541.5 204.128906 535.0625 204.128906 527.128906 C 204.128906 519.191406 210.558594 512.753906 218.496094 512.753906 C 226.429688 512.753906 232.863281 519.191406 232.863281 527.128906 " fill-opacity="1" fill-rule="nonzero"/><path fill="#ffffff" d="M 227.949219 667.027344 L 209.042969 667.027344 L 209.042969 559.394531 L 227.949219 559.394531 L 227.949219 667.027344 " fill-opacity="1" fill-rule="nonzero"/><path fill="#ffffff" d="M 311.90625 524.671875 C 311.90625 532.605469 305.472656 539.039062 297.539062 539.039062 C 289.601562 539.039062 283.167969 532.605469 283.167969 524.671875 C 283.167969 516.730469 289.601562 510.300781 297.539062 510.300781 C 305.472656 510.300781 311.90625 516.730469 311.90625 524.671875 " fill-opacity="1" fill-rule="nonzero"/><path fill="#ffffff" d="M 306.992188 664.574219 L 288.085938 664.574219 L 288.085938 556.9375 L 306.992188 556.9375 L 306.992188 664.574219 " fill-opacity="1" fill-rule="nonzero"/><path fill="#ffffff" d="M 86.886719 672.300781 L 67.980469 672.300781 L 67.980469 680.300781 L 86.886719 680.300781 L 86.886719 672.300781 " fill-opacity="1" fill-rule="nonzero"/><path fill="#ffffff" d="M 157.449219 672.300781 L 138.542969 672.300781 L 138.542969 680.300781 L 157.449219 680.300781 L 157.449219 672.300781 " fill-opacity="1" fill-rule="nonzero"/><path fill="#ffffff" d="M 227.949219 672.300781 L 209.042969 672.300781 L 209.042969 680.300781 L 227.949219 680.300781 L 227.949219 672.300781 " fill-opacity="1" fill-rule="nonzero"/><path fill="#ffffff" d="M 306.992188 670.8125 L 288.085938 670.8125 L 288.085938 678.808594 L 306.992188 678.808594 L 306.992188 670.8125 " fill-opacity="1" fill-rule="nonzero"/><path fill="#ce515d" d="M 534.050781 560.824219 C 524.867188 532.367188 515.855469 503.859375 507.28125 475.21875 C 505.078125 467.875 502.910156 460.523438 500.796875 453.15625 C 500.066406 450.601562 499.710938 447.027344 498.40625 444.683594 C 494.789062 438.15625 485.253906 432.109375 479.5625 426.945312 C 472.222656 420.296875 464.699219 414.273438 459.457031 405.632812 C 453.527344 395.859375 451.839844 386 452.589844 374.863281 C 453.117188 367.050781 450.21875 359.492188 448.804688 351.632812 C 447.945312 346.84375 446.023438 340.734375 446.355469 335.828125 C 447.28125 322.171875 460.671875 331.414062 464.390625 338.226562 C 470.777344 349.90625 475.578125 362.300781 482.65625 373.695312 C 483.472656 375.011719 485.558594 373.804688 484.734375 372.484375 C 477.660156 361.085938 472.941406 348.636719 466.472656 337.011719 C 463.53125 331.71875 455.691406 323.671875 448.820312 326.367188 C 441.761719 329.132812 444.398438 339.496094 445.234375 344.835938 C 446.84375 355.105469 451.277344 365.753906 450.023438 375.933594 C 447.304688 398.109375 461.804688 414.324219 477.164062 428.011719 C 483.019531 433.230469 492.945312 439.636719 496.363281 446.324219 C 498.542969 450.589844 499.246094 456.507812 500.582031 461.078125 C 510.402344 494.710938 520.972656 528.125 531.730469 561.464844 C 532.199219 562.933594 534.527344 562.304688 534.050781 560.824219 " fill-opacity="1" fill-rule="nonzero"/><path fill="#aa0404" d="M 541.472656 546.699219 C 565.847656 584.675781 603.835938 615.792969 641.734375 639.808594 C 642.140625 640.066406 642.878906 640.023438 643.195312 639.621094 C 671.582031 603.394531 698.671875 564.433594 715.054688 521.097656 C 721.847656 503.117188 727.710938 482.839844 725.726562 463.371094 C 725.445312 460.585938 725.117188 457.585938 724.070312 454.957031 C 723.503906 453.535156 721.175781 454.15625 721.746094 455.597656 C 728.742188 473.144531 720.574219 498.117188 714.863281 514.570312 C 705.148438 542.5625 690.238281 568.675781 673.925781 593.292969 C 668.449219 601.5625 662.75 609.683594 656.886719 617.679688 C 654.625 620.765625 643.585938 637.554688 642.21875 637.257812 C 640.164062 636.816406 637.46875 634.125 635.746094 632.953125 C 631.5 630.058594 627.304688 627.085938 623.152344 624.050781 C 593.246094 602.183594 563.71875 576.910156 543.550781 545.480469 C 542.71875 544.179688 540.628906 545.386719 541.472656 546.699219 " fill-opacity="1" fill-rule="nonzero"/><path fill="#aa0404" d="M 741.222656 385.496094 C 706.625 398.1875 666.636719 401.777344 630.117188 396.046875 C 628.597656 395.8125 627.945312 398.132812 629.476562 398.371094 C 666.40625 404.164062 706.835938 400.671875 741.859375 387.820312 C 743.304688 387.289062 742.683594 384.960938 741.222656 385.496094 " fill-opacity="1" fill-rule="nonzero"/><path fill="#ce515d" d="M 349.828125 436.691406 C 351.476562 446.386719 352.488281 456.148438 353.929688 465.851562 C 355.710938 477.816406 362.035156 489.09375 369.300781 498.5625 C 376.59375 508.070312 385.398438 516.355469 394.835938 523.699219 C 400.871094 528.398438 408.5 531.867188 414.191406 536.839844 C 418.636719 540.730469 421.636719 547.582031 424.996094 552.558594 C 430.707031 561 436.628906 569.300781 442.808594 577.402344 C 452.679688 590.34375 463.171875 602.828125 474.460938 614.566406 C 489.476562 630.175781 505.949219 644.734375 524.316406 656.304688 C 531.589844 660.886719 539.476562 665.652344 547.773438 668.1875 C 549.257812 668.644531 549.894531 666.316406 548.414062 665.867188 C 523.589844 658.277344 500.976562 637.457031 483.039062 619.816406 C 472.144531 609.101562 461.972656 597.660156 452.386719 585.757812 C 446.382812 578.304688 440.628906 570.65625 435.070312 562.863281 C 429.273438 554.742188 424.460938 544.925781 417.964844 537.417969 C 415.007812 534.007812 411.046875 532.210938 407.183594 529.644531 C 397.511719 523.21875 388.382812 515.878906 380.285156 507.550781 C 369.28125 496.226562 358.8125 481.789062 356.335938 465.792969 C 354.808594 455.910156 353.835938 445.9375 352.148438 436.050781 C 351.890625 434.523438 349.570312 435.171875 349.828125 436.691406 " fill-opacity="1" fill-rule="nonzero"/></svg>